<svg xmlns="http://www.w3.org/2000/svg" width="20" height="24.214" viewBox="0 0 20 24.214">
  <g id="apple" transform="translate(-5.003)">
    <g id="Group_780" data-name="Group 780" transform="translate(5.003)">
      <path id="Path_148" data-name="Path 148" d="M25,24.768a16.675,16.675,0,0,1-1.512,2.822c-.981,1.494-2.366,3.356-4.081,3.371-1.524.014-1.916-.992-3.984-.98s-2.5,1-4.024.983c-1.715-.015-3.026-1.7-4.008-3.191C4.648,23.594,4.361,18.69,6.054,16.083a6.074,6.074,0,0,1,4.887-2.937c1.818,0,2.96,1,4.464,1,1.458,0,2.346-1,4.448-1A5.936,5.936,0,0,1,24.325,15.5,5.115,5.115,0,0,0,25,24.768Z" transform="translate(-5.003 -6.752)" fill="#fff"/>
      <path id="Path_149" data-name="Path 149" d="M27.329,4.777A5.1,5.1,0,0,0,28.462,1,5.5,5.5,0,0,0,24.9,2.913,4.731,4.731,0,0,0,23.741,6.6a4.654,4.654,0,0,0,3.588-1.82Z" transform="translate(-13.852 -1)" fill="#fff"/>
    </g>
  </g>
</svg>
