<svg xmlns="http://www.w3.org/2000/svg" width="23.264" height="24" viewBox="0 0 23.264 24">
  <g id="direct-left" transform="translate(-2.25 -1.944)">
    <g id="Group_76" data-name="Group 76" transform="translate(2.25 1.944)">
      <path id="Path_54" data-name="Path 54" d="M20.814,25.944a4.678,4.678,0,0,1-2.219-.561L4.767,18.105a4.7,4.7,0,0,1,0-8.328L18.6,2.5A4.706,4.706,0,0,1,25,8.764l-1.933,3.866a2.957,2.957,0,0,0,0,2.613L25,19.108a4.743,4.743,0,0,1-4.188,6.836ZM20.8,3.729a2.943,2.943,0,0,0-1.372.358L5.6,11.365a2.906,2.906,0,0,0,0,5.154L19.43,23.8A2.923,2.923,0,0,0,23.4,19.907L21.47,16.041a4.751,4.751,0,0,1,0-4.212L23.4,7.964a2.832,2.832,0,0,0-.573-3.388A2.938,2.938,0,0,0,20.8,3.729Z" transform="translate(-2.25 -1.944)" fill="#292d32"/>
    </g>
  </g>
</svg>
