<svg xmlns="http://www.w3.org/2000/svg" width="21.39" height="24" viewBox="0 0 21.39 24">
  <g id="notification-bing" transform="translate(-2.351 -1.24)">
    <g id="Group_7" data-name="Group 7" transform="translate(2.351 1.24)">
      <path id="Path_19" data-name="Path 19" d="M12.081,11.042a.837.837,0,0,1-.831-.831V6.521a.831.831,0,1,1,1.662,0v3.69A.83.83,0,0,1,12.081,11.042Z" transform="translate(-1.389 -0.759)" fill="#292d32"/>
      <path id="Path_20" data-name="Path 20" d="M13.065,22.415a26.541,26.541,0,0,1-8.421-1.363A3.291,3.291,0,0,1,2.538,19.09a3.332,3.332,0,0,1,.321-2.859l1.407-2.349a5,5,0,0,0,.587-2.105V9.451a8.211,8.211,0,1,1,16.421,0v2.327a5.041,5.041,0,0,0,.587,2.105l1.407,2.349a3.293,3.293,0,0,1-1.784,4.82,26.233,26.233,0,0,1-8.421,1.363Zm0-19.5A6.554,6.554,0,0,0,6.516,9.462v2.327a6.582,6.582,0,0,1-.82,2.958l-1.407,2.36a1.534,1.534,0,0,0,.886,2.382,25.18,25.18,0,0,0,15.8,0,1.577,1.577,0,0,0,1.008-.975,1.618,1.618,0,0,0-.133-1.407l-1.407-2.349a6.582,6.582,0,0,1-.82-2.958V9.473a6.573,6.573,0,0,0-6.56-6.56Z" transform="translate(-2.351 -1.24)" fill="#292d32"/>
      <path id="Path_21" data-name="Path 21" d="M12.441,23.341A4.54,4.54,0,0,1,7.92,18.82H9.582a2.859,2.859,0,1,0,5.717,0h1.662A4.525,4.525,0,0,1,12.441,23.341Z" transform="translate(-1.749 0.659)" fill="#292d32"/>
    </g>
  </g>
</svg>
