<svg id="camera" xmlns="http://www.w3.org/2000/svg" width="48" height="49.097" viewBox="0 0 48 49.097">
  <g id="Group_681" data-name="Group 681">
    <path id="Path_116" data-name="Path 116" d="M37.457,50.347H13.525c-6.394,0-10.459-3.814-10.824-10.185L1.513,21.323A10.139,10.139,0,0,1,4.276,13.65a10.318,10.318,0,0,1,7.513-3.265A2.022,2.022,0,0,0,13.57,9.265L15.215,6a9.3,9.3,0,0,1,7.673-4.75h5.229a9.293,9.293,0,0,1,7.65,4.727l1.644,3.334a2.04,2.04,0,0,0,1.781,1.073A10.318,10.318,0,0,1,46.7,13.65a10.171,10.171,0,0,1,2.763,7.673L48.281,40.185C47.87,46.647,43.919,50.347,37.457,50.347ZM22.887,4.675A5.839,5.839,0,0,0,18.275,7.53L16.63,10.818a5.45,5.45,0,0,1-4.841,2.991,6.876,6.876,0,0,0-5.024,2.169,6.739,6.739,0,0,0-1.827,5.115L6.126,39.956c.274,4.613,2.763,6.965,7.4,6.965H37.457c4.613,0,7.1-2.352,7.4-6.965l1.187-18.862a6.838,6.838,0,0,0-6.851-7.285,5.493,5.493,0,0,1-4.841-2.946L32.684,7.53A5.8,5.8,0,0,0,28.094,4.7H22.887Z" transform="translate(-1.49 -1.25)" fill="#828fa7"/>
    <path id="Path_117" data-name="Path 117" d="M18.313,10.675H11.463a1.713,1.713,0,0,1,0-3.425h6.851a1.713,1.713,0,1,1,0,3.425Z" transform="translate(9.113 6.451)" fill="#828fa7"/>
    <path id="Path_118" data-name="Path 118" d="M17.134,29.018a9.134,9.134,0,1,1,9.134-9.134A9.132,9.132,0,0,1,17.134,29.018Zm0-14.843a5.709,5.709,0,1,0,5.709,5.709A5.709,5.709,0,0,0,17.134,14.175Z" transform="translate(6.867 10.944)" fill="#828fa7"/>
  </g>
</svg>
