<svg xmlns="http://www.w3.org/2000/svg" width="24" height="24" viewBox="0 0 24 24">
  <g id="monitor" transform="translate(-1.25 -1.25)">
    <g id="Group_646" data-name="Group 646" transform="translate(1.25 1.25)">
      <path id="Path_92" data-name="Path 92" d="M19.457,19.914H7.043c-4.443,0-5.793-1.351-5.793-5.793V7.043C1.25,2.6,2.6,1.25,7.043,1.25h12.4c4.443,0,5.793,1.351,5.793,5.793V14.11c.011,4.454-1.34,5.8-5.782,5.8ZM7.043,2.924c-3.505,0-4.119.614-4.119,4.119V14.11c0,3.505.614,4.119,4.119,4.119h12.4c3.505,0,4.119-.614,4.119-4.119V7.043c0-3.505-.614-4.119-4.119-4.119Z" transform="translate(-1.25 -1.25)" fill="#f2f2f2"/>
      <path id="Path_93" data-name="Path 93" d="M12.087,23.48a.843.843,0,0,1-.837-.837V17.307a.837.837,0,1,1,1.674,0v5.336A.843.843,0,0,1,12.087,23.48Z" transform="translate(-0.087 0.52)" fill="#f2f2f2"/>
      <path id="Path_94" data-name="Path 94" d="M24.413,13.924H2.087a.837.837,0,1,1,0-1.674H24.413a.837.837,0,1,1,0,1.674Z" transform="translate(-1.25 0.029)" fill="#f2f2f2"/>
      <path id="Path_95" data-name="Path 95" d="M17.634,22.924H7.587a.837.837,0,1,1,0-1.674H17.634a.837.837,0,1,1,0,1.674Z" transform="translate(-0.61 1.076)" fill="#f2f2f2"/>
    </g>
  </g>
</svg>
