<svg xmlns="http://www.w3.org/2000/svg" width="48" height="46.836" viewBox="0 0 48 46.836">
  <g id="document-upload" transform="translate(0 -1.25)">
    <g id="Group_721" data-name="Group 721" transform="translate(0 1.25)">
      <path id="Path_129" data-name="Path 129" d="M12.238,26.587A1.646,1.646,0,0,1,10.6,24.953V15.825L9.036,17.394a1.633,1.633,0,1,1-2.309-2.309l4.357-4.357a1.64,1.64,0,0,1,1.786-.349,1.614,1.614,0,0,1,1,1.5V24.953a1.646,1.646,0,0,1-1.634,1.634Z" transform="translate(4.645 9.358)" fill="#828fa7"/>
      <path id="Path_130" data-name="Path 130" d="M14.238,17.872a1.616,1.616,0,0,1-1.155-.479L8.727,13.035a1.633,1.633,0,0,1,2.309-2.309l4.357,4.357a1.644,1.644,0,0,1,0,2.309,1.616,1.616,0,0,1-1.155.479Z" transform="translate(7.002 9.359)" fill="#828fa7"/>
      <path id="Path_131" data-name="Path 131" d="M31.2,48.086H18.133C6.3,48.086,1.25,43.032,1.25,31.2V18.133C1.25,6.3,6.3,1.25,18.133,1.25H29.025a1.634,1.634,0,1,1,0,3.268H18.133C8.09,4.518,4.518,8.09,4.518,18.133V31.2c0,10.043,3.573,13.615,13.615,13.615H31.2c10.043,0,13.615-3.573,13.615-13.615V20.311a1.634,1.634,0,1,1,3.268,0V31.2C48.086,43.032,43.032,48.086,31.2,48.086Z" transform="translate(-1.25 -1.25)" fill="#828fa7"/>
      <path id="Path_132" data-name="Path 132" d="M32.311,21.943H23.6c-7.45,0-10.348-2.9-10.348-10.348V2.882a1.614,1.614,0,0,1,1-1.5,1.648,1.648,0,0,1,1.786.349L33.466,19.155a1.636,1.636,0,1,1-1.155,2.788ZM16.518,6.825V11.6c0,5.62,1.46,7.08,7.08,7.08h4.771Z" transform="translate(12.891 -1.248)" fill="#828fa7"/>
    </g>
  </g>
</svg>
