<svg id="document-text-1" xmlns="http://www.w3.org/2000/svg" width="32" height="31.224" viewBox="0 0 32 31.224">
  <g id="Group_98" data-name="Group 98" transform="translate(0)">
    <path id="Path_58" data-name="Path 58" d="M21.219,32.474H12.505C4.619,32.474,1.25,29.1,1.25,21.219V12.505C1.25,4.619,4.619,1.25,12.505,1.25h7.261a1.089,1.089,0,1,1,0,2.178H12.505c-6.7,0-9.077,2.382-9.077,9.077v8.714c0,6.7,2.382,9.077,9.077,9.077h8.714c6.7,0,9.077-2.382,9.077-9.077V13.958a1.089,1.089,0,0,1,2.178,0v7.261C32.474,29.1,29.1,32.474,21.219,32.474Z" transform="translate(-1.25 -1.25)" fill="#fbf6ee"/>
    <path id="Path_59" data-name="Path 59" d="M25.958,15.046H20.148c-4.967,0-6.9-1.932-6.9-6.9V2.339a1.076,1.076,0,0,1,.668-1,1.1,1.1,0,0,1,1.191.232L26.727,13.187a1.091,1.091,0,1,1-.77,1.859ZM15.428,4.967V8.148c0,3.747.973,4.72,4.72,4.72h3.181Z" transform="translate(4.178 -1.249)" fill="#fbf6ee"/>
    <path id="Path_60" data-name="Path 60" d="M16.053,14.428H7.339a1.089,1.089,0,1,1,0-2.178h8.714a1.089,1.089,0,1,1,0,2.178Z" transform="translate(1.011 3.725)" fill="#fbf6ee"/>
    <path id="Path_61" data-name="Path 61" d="M13.148,18.428H7.339a1.089,1.089,0,1,1,0-2.178h5.809a1.089,1.089,0,1,1,0,2.178Z" transform="translate(1.011 5.534)" fill="#fbf6ee"/>
  </g>
</svg>
