<svg xmlns="http://www.w3.org/2000/svg" width="40" height="40" viewBox="0 0 40 40">
  <g id="Group_33" data-name="Group 33" transform="translate(-1020 -216)">
    <rect id="Rectangle_9" data-name="Rectangle 9" width="40" height="40" rx="8" transform="translate(1020 216)" fill="#fff" opacity="0"/>
    <g id="edit-2" transform="translate(1026.75 222.574)">
      <g id="Group_32" data-name="Group 32" transform="translate(2.25 1.426)">
        <path id="Path_41" data-name="Path 41" d="M5.827,21.791a2.579,2.579,0,0,1-1.79-.675,2.68,2.68,0,0,1-.765-2.285l.416-3.647a4.057,4.057,0,0,1,.979-2.093l9.24-9.781c2.307-2.442,4.716-2.51,7.158-.2s2.51,4.716.2,7.158l-9.24,9.781a4.057,4.057,0,0,1-2.037,1.092l-3.624.619c-.191.011-.36.034-.54.034ZM17.521,3.1a3.438,3.438,0,0,0-2.386,1.351l-9.24,9.792a2.6,2.6,0,0,0-.529,1.126l-.416,3.647a.989.989,0,0,0,.248.867,1.014,1.014,0,0,0,.878.2L9.7,19.461a2.515,2.515,0,0,0,1.092-.585L20.031,9.1c1.4-1.486,1.9-2.859-.135-4.772A3.559,3.559,0,0,0,17.521,3.1Z" transform="translate(-2.124 -1.426)" fill="#fff"/>
        <path id="Path_42" data-name="Path 42" d="M18.117,11.784h-.079a7.721,7.721,0,0,1-6.877-6.505.848.848,0,1,1,1.677-.259,6.046,6.046,0,0,0,5.38,5.087.845.845,0,0,1,.754.923.871.871,0,0,1-.855.754Z" transform="translate(-1.133 -1.065)" fill="#fff"/>
        <path id="Path_43" data-name="Path 43" d="M23.353,22.938H3.094a.844.844,0,0,1,0-1.688H23.353a.844.844,0,0,1,0,1.688Z" transform="translate(-2.25 1.062)" fill="#fff"/>
      </g>
    </g>
  </g>
</svg>
