<svg xmlns="http://www.w3.org/2000/svg" width="27.469" height="30.038" viewBox="0 0 27.469 30.038">
  <g id="Group_32" data-name="Group 32" transform="translate(0 0)">
    <path id="Path_41" data-name="Path 41" d="M6.475,26.914a3.228,3.228,0,0,1-2.24-.845,3.355,3.355,0,0,1-.958-2.86L3.8,18.645a5.078,5.078,0,0,1,1.226-2.62L16.589,3.784c2.888-3.057,5.9-3.141,8.959-.254s3.141,5.9.254,8.959L14.237,24.731a5.077,5.077,0,0,1-2.55,1.366l-4.536.775c-.239.014-.451.042-.676.042Zm14.636-23.4a4.3,4.3,0,0,0-2.986,1.69L6.56,17.462A3.253,3.253,0,0,0,5.9,18.871l-.521,4.564a1.238,1.238,0,0,0,.31,1.085,1.269,1.269,0,0,0,1.1.254L11.321,24a3.147,3.147,0,0,0,1.366-.732L24.252,11.024C26,9.165,26.633,7.446,24.083,5.052a4.454,4.454,0,0,0-2.972-1.535Z" transform="translate(-1.841 -1.426)" fill="#979797"/>
    <path id="Path_42" data-name="Path 42" d="M19.869,13.667h-.1a9.663,9.663,0,0,1-8.607-8.142,1.062,1.062,0,1,1,2.1-.324A7.567,7.567,0,0,0,20,11.568a1.058,1.058,0,0,1,.944,1.155,1.091,1.091,0,0,1-1.071.944Z" transform="translate(1.388 -0.251)" fill="#979797"/>
    <path id="Path_43" data-name="Path 43" d="M28.662,23.363H3.306a1.056,1.056,0,0,1,0-2.113H28.662a1.056,1.056,0,1,1,0,2.113Z" transform="translate(-2.25 6.675)" fill="#979797"/>
  </g>
</svg>
