<svg id="more-square" xmlns="http://www.w3.org/2000/svg" width="24" height="24" viewBox="0 0 24 24">
  <g id="Group_24" data-name="Group 24">
    <path id="Path_30" data-name="Path 30" d="M16.6,25.25H9.9C3.84,25.25,1.25,22.66,1.25,16.6V9.9C1.25,3.84,3.84,1.25,9.9,1.25h6.7c6.061,0,8.651,2.59,8.651,8.651v6.7C25.25,22.66,22.66,25.25,16.6,25.25ZM9.9,2.924c-5.146,0-6.977,1.831-6.977,6.977v6.7c0,5.146,1.831,6.977,6.977,6.977h6.7c5.146,0,6.977-1.831,6.977-6.977V9.9c0-5.146-1.831-6.977-6.977-6.977Z" transform="translate(-1.25 -1.25)" fill="#292d32"/>
    <path id="Path_31" data-name="Path 31" d="M12.116,13.233a1.116,1.116,0,1,1,1.116-1.116A1.112,1.112,0,0,1,12.116,13.233Z" transform="translate(-0.116 -0.116)" fill="#292d32"/>
    <path id="Path_32" data-name="Path 32" d="M16.116,13.233a1.116,1.116,0,1,1,1.116-1.116A1.112,1.112,0,0,1,16.116,13.233Z" transform="translate(0.349 -0.116)" fill="#292d32"/>
    <path id="Path_33" data-name="Path 33" d="M8.116,13.233a1.116,1.116,0,1,1,1.116-1.116A1.112,1.112,0,0,1,8.116,13.233Z" transform="translate(-0.581 -0.116)" fill="#292d32"/>
  </g>
</svg>
