<svg xmlns="http://www.w3.org/2000/svg" width="24" height="24.003" viewBox="0 0 24 24.003">
  <g id="eye-slash" transform="translate(-1.252 -1.253)">
    <g id="Group_748" data-name="Group 748" transform="translate(1.252 1.253)">
      <path id="Path_134" data-name="Path 134" d="M9.68,16.167a.828.828,0,0,1-.592-.246,4.832,4.832,0,1,1,6.833-6.833.837.837,0,0,1,0,1.184l-5.65,5.65A.828.828,0,0,1,9.68,16.167ZM12.5,9.345a3.164,3.164,0,0,0-2.747,4.723l4.31-4.31A3.144,3.144,0,0,0,12.5,9.345Z" transform="translate(-0.504 -0.505)" fill="#979797"/>
      <path id="Path_135" data-name="Path 135" d="M6.082,20.32a.85.85,0,0,1-.547-.2A16.206,16.206,0,0,1,2.353,16.4a6.764,6.764,0,0,1,0-6.7C5.077,5.436,9.041,2.98,13.228,2.98a11.628,11.628,0,0,1,7,2.445.837.837,0,1,1-1,1.34,9.935,9.935,0,0,0-6-2.11c-3.606,0-7.056,2.166-9.468,5.951a5.074,5.074,0,0,0,0,4.89,15.33,15.33,0,0,0,2.858,3.35.844.844,0,0,1,.089,1.184.811.811,0,0,1-.625.29Z" transform="translate(-1.228 -1.051)" fill="#979797"/>
      <path id="Path_136" data-name="Path 136" d="M12.506,22.633a11.025,11.025,0,0,1-4.332-.893A.836.836,0,0,1,8.821,20.2a9.371,9.371,0,0,0,3.673.759c3.606,0,7.056-2.166,9.468-5.951a5.074,5.074,0,0,0,0-4.89,15.9,15.9,0,0,0-1.128-1.563.849.849,0,0,1,.123-1.184.837.837,0,0,1,1.184.123,17.745,17.745,0,0,1,1.239,1.719,6.764,6.764,0,0,1,0,6.7C20.656,20.176,16.693,22.633,12.506,22.633Z" transform="translate(-0.505 -0.562)" fill="#979797"/>
      <path id="Path_137" data-name="Path 137" d="M12.778,16.772a.846.846,0,0,1-.826-.681.822.822,0,0,1,.67-.971A3.149,3.149,0,0,0,15.1,12.641a.841.841,0,0,1,1.652.313,4.8,4.8,0,0,1-3.819,3.819A.732.732,0,0,0,12.778,16.772Z" transform="translate(-0.007 -0.005)" fill="#979797"/>
      <path id="Path_138" data-name="Path 138" d="M2.087,23.795a.828.828,0,0,1-.592-.246.842.842,0,0,1,0-1.184l8.34-8.34a.837.837,0,0,1,1.184,1.184l-8.34,8.34A.828.828,0,0,1,2.087,23.795Z" transform="translate(-1.252 0.208)" fill="#979797"/>
      <path id="Path_139" data-name="Path 139" d="M14.617,11.265a.828.828,0,0,1-.592-.246.842.842,0,0,1,0-1.184l8.34-8.34a.837.837,0,1,1,1.184,1.184l-8.34,8.34A.828.828,0,0,1,14.617,11.265Z" transform="translate(0.208 -1.253)" fill="#979797"/>
    </g>
  </g>
</svg>
