<svg xmlns="http://www.w3.org/2000/svg" width="21.095" height="24" viewBox="0 0 21.095 24">
  <g id="filter-edit" transform="translate(-2.55)">
    <g id="Group_956" data-name="Group 956" transform="translate(2.55)">
      <path id="Path_275" data-name="Path 275" d="M11.913,25.27a3.261,3.261,0,0,1-1.564-.4,3.039,3.039,0,0,1-1.587-2.682V16.209a3.579,3.579,0,0,0-.715-1.844L3.8,9.907A4.555,4.555,0,0,1,2.55,7.069V4.477A3.121,3.121,0,0,1,5.645,1.27H20.55a3.1,3.1,0,0,1,3.095,3.095v2.48a5.039,5.039,0,0,1-1.374,3.184.837.837,0,0,1-1.184-1.184,3.425,3.425,0,0,0,.883-2V4.365A1.421,1.421,0,0,0,20.55,2.946H5.645A1.463,1.463,0,0,0,4.226,4.477V7.069A2.96,2.96,0,0,0,5,8.734l4.3,4.525a5.157,5.157,0,0,1,1.128,2.95v5.978a1.363,1.363,0,0,0,.726,1.218,1.493,1.493,0,0,0,1.5-.011l1.564-1.006a.845.845,0,0,1,.916,1.419l-1.575,1.017a3.3,3.3,0,0,1-1.642.447Z" transform="translate(-2.55 -1.27)" fill="#646262"/>
      <path id="Path_276" data-name="Path 276" d="M13.854,19.866a1.571,1.571,0,0,1-1.117-.447,1.59,1.59,0,0,1-.425-1.374l.212-1.508a2.179,2.179,0,0,1,.57-1.128l3.955-3.955a2.661,2.661,0,0,1,1.631-.872,2.53,2.53,0,0,1,2.034.872,2.516,2.516,0,0,1,.872,2.034,2.749,2.749,0,0,1-.872,1.631l-3.955,3.955a2.213,2.213,0,0,1-1.14.57l-1.508.212a1.978,1.978,0,0,1-.257.011Zm5.017-7.631h-.034a1.1,1.1,0,0,0-.6.391l-3.955,3.955a.425.425,0,0,0-.089.19l-.2,1.4,1.4-.2a.621.621,0,0,0,.19-.1l3.955-3.955a1.173,1.173,0,0,0,.391-.6c.022-.223-.2-.492-.391-.682a1.14,1.14,0,0,0-.659-.391Z" transform="translate(-1.407 -0.179)" fill="#646262"/>
      <path id="Path_277" data-name="Path 277" d="M19.138,15.8a.72.72,0,0,1-.223-.034A4.444,4.444,0,0,1,15.853,12.7a.849.849,0,0,1,.581-1.039.832.832,0,0,1,1.028.581,2.755,2.755,0,0,0,1.9,1.9.844.844,0,0,1,.581,1.039.822.822,0,0,1-.8.615Z" transform="translate(-0.993 -0.054)" fill="#646262"/>
    </g>
  </g>
</svg>
