<svg id="globe" xmlns="http://www.w3.org/2000/svg" width="30.038" height="30.038" viewBox="0 0 30.038 30.038">
  <g id="Group_26" data-name="Group 26" transform="translate(0 0)">
    <path id="Ellipse_2" data-name="Ellipse 2" d="M6.437,2.5c-.393,0-1.351.782-2.251,2.882A25.647,25.647,0,0,0,2.5,15.019a25.647,25.647,0,0,0,1.683,9.634c.9,2.1,1.858,2.882,2.251,2.882s1.351-.782,2.251-2.882a25.647,25.647,0,0,0,1.683-9.634A25.647,25.647,0,0,0,8.687,5.385C7.788,3.286,6.829,2.5,6.437,2.5m0-2.5c3.555,0,6.437,6.724,6.437,15.019S9.992,30.038,6.437,30.038,0,23.314,0,15.019,2.882,0,6.437,0Z" transform="translate(8.582)" fill="#979797"/>
    <path id="Line_1" data-name="Line 1" d="M27.786,1.5H.252a1.252,1.252,0,1,1,0-2.5H27.786a1.252,1.252,0,0,1,0,2.5Z" transform="translate(1 14.767)" fill="#979797"/>
    <path id="Ellipse_3" data-name="Ellipse 3" d="M15.019,2.5A12.516,12.516,0,1,0,27.535,15.019,12.53,12.53,0,0,0,15.019,2.5m0-2.5A15.019,15.019,0,1,1,0,15.019,15.019,15.019,0,0,1,15.019,0Z" fill="#979797"/>
  </g>
</svg>
