<svg xmlns="http://www.w3.org/2000/svg" width="20" height="20.311" viewBox="0 0 20 20.311">
  <g id="google" transform="translate(-2)">
    <g id="Group_776" data-name="Group 776" transform="translate(2)">
      <path id="Path_144" data-name="Path 144" d="M13.388,6.153A5.968,5.968,0,0,1,17.24,7.56l3.018-2.874A10.141,10.141,0,0,0,4.293,7.647L7.7,10.27a6.007,6.007,0,0,1,5.692-4.116Z" transform="translate(-3.235 -2)" fill="#fff"/>
      <path id="Path_145" data-name="Path 145" d="M6.154,18.742a5.973,5.973,0,0,1,.307-1.883l-3.4-2.623a10.123,10.123,0,0,0,0,9.013l3.4-2.623a5.973,5.973,0,0,1-.307-1.883Z" transform="translate(-2 -8.589)" fill="#fff"/>
      <path id="Path_146" data-name="Path 146" d="M33.792,20H24.1v4.154h5.492A4.951,4.951,0,0,1,27.49,27l3.376,2.6C33.024,27.664,34.292,24.515,33.792,20Z" transform="translate(-13.9 -11.693)" fill="#fff"/>
      <path id="Path_147" data-name="Path 147" d="M16.823,31.349a6.452,6.452,0,0,1-3.435.848A6.007,6.007,0,0,1,7.7,28.081L4.293,30.7a10.164,10.164,0,0,0,9.1,5.647,10.091,10.091,0,0,0,6.811-2.4Z" transform="translate(-3.235 -16.044)" fill="#fff"/>
    </g>
  </g>
</svg>
