<svg id="info-circle" xmlns="http://www.w3.org/2000/svg" width="32" height="32" viewBox="0 0 32 32">
  <g id="Group_666" data-name="Group 666">
    <path id="Path_111" data-name="Path 111" d="M17.25,33.25a16,16,0,1,1,16-16A16.013,16.013,0,0,1,17.25,33.25Zm0-29.767A13.767,13.767,0,1,0,31.017,17.25,13.784,13.784,0,0,0,17.25,3.483Z" transform="translate(-1.25 -1.25)" fill="#e6e9ed"/>
    <path id="Path_112" data-name="Path 112" d="M12.366,16.924a1.124,1.124,0,0,1-1.116-1.116V8.366a1.116,1.116,0,1,1,2.233,0v7.442A1.124,1.124,0,0,1,12.366,16.924Z" transform="translate(3.634 1.68)" fill="#e6e9ed"/>
    <path id="Path_113" data-name="Path 113" d="M12.488,17.974a1.482,1.482,0,0,1-.566-.119,1.719,1.719,0,0,1-.491-.313,1.536,1.536,0,0,1-.313-.491,1.4,1.4,0,0,1,0-1.131,1.342,1.342,0,0,1,.8-.8,1.488,1.488,0,0,1,1.131,0,1.342,1.342,0,0,1,.8.8,1.4,1.4,0,0,1,0,1.131,1.536,1.536,0,0,1-.313.491,1.719,1.719,0,0,1-.491.313,1.482,1.482,0,0,1-.566.119Z" transform="translate(3.512 5.468)" fill="#e6e9ed"/>
  </g>
</svg>
