<svg xmlns="http://www.w3.org/2000/svg" width="120" height="54.624" viewBox="0 0 120 54.624">
  <g id="Vi.Site_Logo_dark_RZ" transform="translate(-0.003)">
    <rect id="Rectangle_964" data-name="Rectangle 964" width="120" height="54.388" transform="translate(0.003 0)" fill="#fff" opacity="0"/>
    <path id="Path_158" data-name="Path 158" d="M31.173,54.364a.427.427,0,0,0,.813-.009l23.046-41.6c.22-.4.03-.719-.424-.719H48.022a1.535,1.535,0,0,0-1.221.719L27.757,47.08a1.6,1.6,0,0,0,.016,1.429l3.4,5.855h0ZM40.818.04A1.535,1.535,0,0,0,39.6.759L24.9,27.3c-.22.4-.583.4-.811.007L12.857,7.944c-.227-.394-.045-.71.41-.71H29.678A1.533,1.533,0,0,0,30.9,6.515L34.059.762c.218-.4.028-.719-.426-.719H.511C.056.04-.126.359.1.752L24.114,42.2a.426.426,0,0,0,.811-.007L47.891.759c.22-.4.03-.719-.424-.719H40.816Z" transform="translate(0 -0.031)" fill="#fff"/>
    <path id="Path_159" data-name="Path 159" d="M221.492.007a3.967,3.967,0,0,0-3.149,1.86l-1.921,3.477a1.159,1.159,0,0,0,1.1,1.874h3.952a3.972,3.972,0,0,0,3.151-1.855l1.944-3.509C227.138.829,226.648,0,225.477,0l-3.985.007Z" transform="translate(-165.537)" fill="#fa2157"/>
    <path id="Path_160" data-name="Path 160" d="M265.723,38.578c-1.23-2.174-4.062-3.446-6.728-3.446-3.486,0-6.853,1.682-6.853,5.58,0,3.652,3.242,4.636,5.5,5.17,3.652.862,5.662,1.682,5.662,3.692,0,2.5-2.134,3.364-4.512,3.364a6.358,6.358,0,0,1-5.334-2.994l-2.216,1.642a8.969,8.969,0,0,0,7.59,3.734c3.528,0,7.22-1.558,7.22-5.948,0-2.994-2.134-4.676-6.646-5.62-3.16-.656-4.594-1.478-4.594-3.282,0-2.134,2.052-2.994,4.062-2.994a5.2,5.2,0,0,1,4.718,2.708l2.134-1.6h0Zm8.7-2.954h-2.79v19.2h2.79v-19.2Zm16.083,0h-5.416V30.21H282.3v5.416h-3.98v2.338h3.98V49.945c0,4.226,2.872,5.128,4.924,5.128A9.039,9.039,0,0,0,290.5,54.5l-.124-2.42a5.709,5.709,0,0,1-2.42.616c-1.682,0-2.872-.656-2.872-3.528V37.962H290.5V35.624Zm5.908,8.125a6.8,6.8,0,0,1,6.728-6.276c3.98,0,6.194,2.666,6.361,6.276H296.413Zm15.919.9c0-5.252-3.158-9.519-9.191-9.519-5.456,0-9.683,4.308-9.683,10.093a9.749,9.749,0,0,0,9.929,10.093,10.014,10.014,0,0,0,8.246-4.062l-2.092-1.642a7.274,7.274,0,0,1-6.154,3.322,7,7,0,0,1-7.017-6.974h15.919c.04-.492.04-.944.04-1.312h0Z" transform="translate(-192.378 -23.133)" fill="#fff"/>
    <path id="Path_161" data-name="Path 161" d="M340.672.007a3.967,3.967,0,0,0-3.149,1.86L335.6,5.344a1.159,1.159,0,0,0,1.1,1.874h1.169a3.972,3.972,0,0,0,3.151-1.855l1.944-3.509C343.537.829,343.047,0,341.876,0l-1.2.007h0Z" transform="translate(-256.796)" fill="#fa2157"/>
  </g>
</svg>
