<svg xmlns="http://www.w3.org/2000/svg" width="24" height="24.003" viewBox="0 0 24 24.003">
  <g id="search-normal-1" transform="translate(-1.25 -1.25)">
    <g id="Group_5" data-name="Group 5" transform="translate(1.25 1.25)">
      <path id="Path_17" data-name="Path 17" d="M12.693,24.136A11.443,11.443,0,1,1,24.136,12.693,11.459,11.459,0,0,1,12.693,24.136Zm0-21.212a9.769,9.769,0,1,0,9.769,9.769A9.779,9.779,0,0,0,12.693,2.925Z" transform="translate(-1.25 -1.25)" fill="#646262"/>
      <path id="Path_18" data-name="Path 18" d="M22.32,23.157a.828.828,0,0,1-.592-.246L19.5,20.679A.837.837,0,1,1,20.679,19.5l2.233,2.233a.842.842,0,0,1,0,1.183.828.828,0,0,1-.592.246Z" transform="translate(0.846 0.846)" fill="#646262"/>
    </g>
  </g>
</svg>
