<svg xmlns="http://www.w3.org/2000/svg" width="24" height="19.972" viewBox="0 0 24 19.972">
  <g id="mail" transform="translate(0 -2)">
    <g id="Group_154" data-name="Group 154" transform="translate(0 2)">
      <path id="Path_83" data-name="Path 83" d="M12,13.912a.921.921,0,0,1-.621-.24L.916,4.164A.923.923,0,0,1,2.158,2.8L12,11.742,21.832,2.8a.923.923,0,0,1,1.242,1.366L12.617,13.672A.921.921,0,0,1,12,13.912Z" transform="translate(0.004 -0.15)" fill="#3d3d3d"/>
      <path id="Rectangle_34" data-name="Rectangle 34" d="M3.615-1H18.385A4.621,4.621,0,0,1,23,3.615V14.357a4.621,4.621,0,0,1-4.615,4.615H3.615A4.621,4.621,0,0,1-1,14.357V3.615A4.621,4.621,0,0,1,3.615-1ZM18.385,17.126a2.772,2.772,0,0,0,2.769-2.769V3.615A2.772,2.772,0,0,0,18.385.846H3.615A2.772,2.772,0,0,0,.846,3.615V14.357a2.772,2.772,0,0,0,2.769,2.769Z" transform="translate(1 1)" fill="#3d3d3d"/>
    </g>
  </g>
</svg>
