<svg xmlns="http://www.w3.org/2000/svg" width="19.535" height="24" viewBox="0 0 19.535 24">
  <g id="mobile" transform="translate(-3.25 -1.25)">
    <g id="Group_643" data-name="Group 643" transform="translate(3.25 1.25)">
      <path id="Path_89" data-name="Path 89" d="M16.366,25.25h-6.7c-4.923,0-6.419-1.5-6.419-6.419V7.669c0-4.923,1.5-6.419,6.419-6.419h6.7c4.923,0,6.419,1.5,6.419,6.419V18.831C22.785,23.754,21.289,25.25,16.366,25.25ZM9.669,2.924c-4,0-4.744.759-4.744,4.744V18.831c0,3.985.748,4.744,4.744,4.744h6.7c4,0,4.744-.759,4.744-4.744V7.669c0-3.985-.748-4.744-4.744-4.744Z" transform="translate(-3.25 -1.25)" fill="#041e4f"/>
      <path id="Path_90" data-name="Path 90" d="M14.552,6.424H10.087a.837.837,0,1,1,0-1.674h4.465a.837.837,0,0,1,0,1.674Z" transform="translate(-2.552 -0.843)" fill="#041e4f"/>
      <path id="Path_91" data-name="Path 91" d="M12.267,20.395a2.567,2.567,0,1,1,2.567-2.567,2.567,2.567,0,0,1-2.567,2.567Zm0-3.472a.893.893,0,1,0,.893.893A.9.9,0,0,0,12.267,16.923Z" transform="translate(-2.5 0.379)" fill="#041e4f"/>
    </g>
  </g>
</svg>
