<svg xmlns="http://www.w3.org/2000/svg" width="32" height="32" viewBox="0 0 32 32">
  <g id="profile-circle" transform="translate(-1.25 -1.25)">
    <g id="Group_664" data-name="Group 664" transform="translate(1.25 1.25)">
      <path id="Path_108" data-name="Path 108" d="M14.142,17.461h-.253a5.939,5.939,0,1,1,.3,0h-.045ZM13.963,7.7a3.767,3.767,0,0,0-.149,7.531,1.25,1.25,0,0,1,.342,0A3.768,3.768,0,0,0,13.963,7.7Z" transform="translate(2.037 0.816)" fill="#e6e9ed"/>
      <path id="Path_109" data-name="Path 109" d="M15.66,26.684a15.941,15.941,0,0,1-10.791-4.2,1.124,1.124,0,0,1-.357-.938,6.561,6.561,0,0,1,3.126-4.644,15.664,15.664,0,0,1,16.045,0,6.59,6.59,0,0,1,3.126,4.644,1.066,1.066,0,0,1-.357.938A15.94,15.94,0,0,1,15.66,26.684ZM6.849,21.251a13.731,13.731,0,0,0,17.622,0,4.838,4.838,0,0,0-2.039-2.5,13.468,13.468,0,0,0-13.559,0,4.8,4.8,0,0,0-2.024,2.5Z" transform="translate(0.34 5.316)" fill="#e6e9ed"/>
      <path id="Path_110" data-name="Path 110" d="M17.25,33.25a16,16,0,1,1,16-16A16.013,16.013,0,0,1,17.25,33.25Zm0-29.767A13.767,13.767,0,1,0,31.017,17.25,13.784,13.784,0,0,0,17.25,3.483Z" transform="translate(-1.25 -1.25)" fill="#e6e9ed"/>
    </g>
  </g>
</svg>
