<svg xmlns="http://www.w3.org/2000/svg" width="24" height="24.045" viewBox="0 0 24 24.045">
  <g id="call" transform="translate(-1.25 -1.25)">
    <g id="Group_149" data-name="Group 149" transform="translate(1.25 1.25)">
      <path id="Path_81" data-name="Path 81" d="M19.367,25.295a10.232,10.232,0,0,1-3.97-.884,21,21,0,0,1-4.015-2.3A34.909,34.909,0,0,1,7.613,18.9,33.412,33.412,0,0,1,4.4,15.14a20.871,20.871,0,0,1-2.281-3.981A10.355,10.355,0,0,1,1.25,7.166a6.739,6.739,0,0,1,.459-2.472,5.973,5.973,0,0,1,1.5-2.17A4.061,4.061,0,0,1,6.1,1.25a3.024,3.024,0,0,1,1.264.28,2.559,2.559,0,0,1,1.074.906l2.595,3.657a4.332,4.332,0,0,1,.537.951,2.512,2.512,0,0,1,.224,1,2.373,2.373,0,0,1-.358,1.23,4.473,4.473,0,0,1-.749.951l-.76.794a.545.545,0,0,0,.034.078,8.6,8.6,0,0,0,.917,1.241c.548.626,1.062,1.2,1.577,1.722.66.649,1.208,1.163,1.722,1.588a7.284,7.284,0,0,0,1.3.928l-.022.056.816-.805a4.177,4.177,0,0,1,1.007-.772,2.361,2.361,0,0,1,2.181-.123,5.092,5.092,0,0,1,.939.526l3.713,2.639A2.4,2.4,0,0,1,25,19.155a3.236,3.236,0,0,1,.246,1.208,3.73,3.73,0,0,1-.358,1.577A5.209,5.209,0,0,1,24,23.282a5.736,5.736,0,0,1-2.136,1.532,6.6,6.6,0,0,1-2.494.481ZM6.1,2.928a2.451,2.451,0,0,0-1.733.805,4.29,4.29,0,0,0-1.1,1.577,4.893,4.893,0,0,0-.347,1.856A8.622,8.622,0,0,0,3.666,10.5a18.668,18.668,0,0,0,2.1,3.646A30.941,30.941,0,0,0,8.8,17.7a31.489,31.489,0,0,0,3.568,3.042,18.171,18.171,0,0,0,3.679,2.114,6.67,6.67,0,0,0,5.178.391,4.129,4.129,0,0,0,1.532-1.107,3.627,3.627,0,0,0,.626-.939,1.981,1.981,0,0,0,.2-.861,1.335,1.335,0,0,0-.123-.559.847.847,0,0,0-.313-.336l-3.713-2.639a3.206,3.206,0,0,0-.615-.347.588.588,0,0,0-.727.034,2.549,2.549,0,0,0-.649.5l-.85.839a1.594,1.594,0,0,1-1.622.336l-.3-.134a9.533,9.533,0,0,1-1.588-1.13c-.537-.459-1.118-1-1.823-1.689-.548-.559-1.1-1.152-1.666-1.812A9.542,9.542,0,0,1,8.452,11.83l-.134-.336a2.088,2.088,0,0,1-.089-.559,1.435,1.435,0,0,1,.425-1.04l.839-.872A3.239,3.239,0,0,0,10,8.4a.717.717,0,0,0,.123-.38,1.04,1.04,0,0,0-.089-.358,3.208,3.208,0,0,0-.358-.593L7.077,3.4a1.031,1.031,0,0,0-.414-.347A1.4,1.4,0,0,0,6.1,2.928Zm9.349,13.711-.179.76.3-.783a.138.138,0,0,0-.123.022Z" transform="translate(-1.25 -1.25)" fill="#292d32"/>
    </g>
  </g>
</svg>
