<svg id="add-square" xmlns="http://www.w3.org/2000/svg" width="23.851" height="23.851" viewBox="0 0 23.851 23.851">
  <g id="Group_23" data-name="Group 23">
    <path id="Path_27" data-name="Path 27" d="M16.957,12.914H8.082a.832.832,0,0,1,0-1.664h8.875a.832.832,0,0,1,0,1.664Z" transform="translate(-0.594 -0.157)" fill="#292d32"/>
    <path id="Path_28" data-name="Path 28" d="M12.082,17.789a.838.838,0,0,1-.832-.832V8.082a.832.832,0,0,1,1.664,0v8.875A.838.838,0,0,1,12.082,17.789Z" transform="translate(-0.157 -0.594)" fill="#292d32"/>
    <path id="Path_29" data-name="Path 29" d="M16.5,25.1H9.847c-6.024,0-8.6-2.574-8.6-8.6V9.847c0-6.024,2.574-8.6,8.6-8.6H16.5c6.024,0,8.6,2.574,8.6,8.6V16.5C25.1,22.527,22.527,25.1,16.5,25.1ZM9.847,2.914c-5.114,0-6.933,1.819-6.933,6.933V16.5c0,5.114,1.819,6.933,6.933,6.933H16.5c5.114,0,6.933-1.819,6.933-6.933V9.847c0-5.114-1.819-6.933-6.933-6.933Z" transform="translate(-1.25 -1.25)" fill="#292d32"/>
  </g>
</svg>
