<svg xmlns="http://www.w3.org/2000/svg" width="100" height="99.712" viewBox="0 0 100 99.712">
  <g id="Group_639" data-name="Group 639" transform="translate(-1597.639 -825.639)">
    <g id="qr-code" transform="translate(1597.639 825.639)">
      <g id="Group_636" data-name="Group 636" transform="translate(0 0)">
        <rect id="Rectangle_662" data-name="Rectangle 662" width="4.115" height="4.115" transform="translate(32.099 0.062)" fill="#fbf6ee"/>
        <rect id="Rectangle_663" data-name="Rectangle 663" width="4.115" height="4.115" transform="translate(39.918 0.062)" fill="#fbf6ee"/>
        <rect id="Rectangle_664" data-name="Rectangle 664" width="4.115" height="4.115" transform="translate(44.033 0.062)" fill="#fbf6ee"/>
        <rect id="Rectangle_665" data-name="Rectangle 665" width="4.115" height="4.115" transform="translate(51.852 0.062)" fill="#fbf6ee"/>
        <rect id="Rectangle_666" data-name="Rectangle 666" width="4.115" height="4.115" transform="translate(55.967 0.062)" fill="#fbf6ee"/>
        <rect id="Rectangle_667" data-name="Rectangle 667" width="4.115" height="3.704" transform="translate(32.099 4.177)" fill="#fbf6ee"/>
        <rect id="Rectangle_668" data-name="Rectangle 668" width="3.704" height="3.704" transform="translate(48.148 4.177)" fill="#fbf6ee"/>
        <rect id="Rectangle_669" data-name="Rectangle 669" width="4.115" height="3.704" transform="translate(51.852 4.177)" fill="#fbf6ee"/>
        <rect id="Rectangle_670" data-name="Rectangle 670" width="4.115" height="4.115" transform="translate(32.099 7.881)" fill="#fbf6ee"/>
        <rect id="Rectangle_671" data-name="Rectangle 671" width="4.115" height="4.115" transform="translate(51.852 7.881)" fill="#fbf6ee"/>
        <rect id="Rectangle_672" data-name="Rectangle 672" width="4.115" height="4.115" transform="translate(55.967 7.881)" fill="#fbf6ee"/>
        <rect id="Rectangle_673" data-name="Rectangle 673" width="3.704" height="4.115" transform="translate(60.082 7.881)" fill="#fbf6ee"/>
        <rect id="Rectangle_674" data-name="Rectangle 674" width="3.704" height="4.115" transform="translate(36.214 11.996)" fill="#fbf6ee"/>
        <rect id="Rectangle_675" data-name="Rectangle 675" width="4.115" height="4.115" transform="translate(51.852 11.996)" fill="#fbf6ee"/>
        <rect id="Rectangle_676" data-name="Rectangle 676" width="4.115" height="4.115" transform="translate(55.967 11.996)" fill="#fbf6ee"/>
        <rect id="Rectangle_677" data-name="Rectangle 677" width="4.115" height="4.115" transform="translate(63.786 11.996)" fill="#fbf6ee"/>
        <rect id="Rectangle_678" data-name="Rectangle 678" width="4.115" height="3.704" transform="translate(32.099 16.111)" fill="#fbf6ee"/>
        <rect id="Rectangle_679" data-name="Rectangle 679" width="3.704" height="3.704" transform="translate(36.214 16.111)" fill="#fbf6ee"/>
        <rect id="Rectangle_680" data-name="Rectangle 680" width="3.704" height="3.704" transform="translate(48.148 16.111)" fill="#fbf6ee"/>
        <rect id="Rectangle_681" data-name="Rectangle 681" width="4.115" height="3.704" transform="translate(51.852 16.111)" fill="#fbf6ee"/>
        <rect id="Rectangle_682" data-name="Rectangle 682" width="4.115" height="3.704" transform="translate(55.967 16.111)" fill="#fbf6ee"/>
        <rect id="Rectangle_683" data-name="Rectangle 683" width="4.115" height="3.704" transform="translate(63.786 16.111)" fill="#fbf6ee"/>
        <rect id="Rectangle_684" data-name="Rectangle 684" width="4.115" height="4.115" transform="translate(39.918 19.815)" fill="#fbf6ee"/>
        <rect id="Rectangle_685" data-name="Rectangle 685" width="4.115" height="4.115" transform="translate(51.852 19.815)" fill="#fbf6ee"/>
        <rect id="Rectangle_686" data-name="Rectangle 686" width="4.115" height="4.115" transform="translate(55.967 19.815)" fill="#fbf6ee"/>
        <rect id="Rectangle_687" data-name="Rectangle 687" width="4.115" height="4.115" transform="translate(63.786 19.815)" fill="#fbf6ee"/>
        <rect id="Rectangle_688" data-name="Rectangle 688" width="4.115" height="4.115" transform="translate(32.099 23.93)" fill="#fbf6ee"/>
        <rect id="Rectangle_689" data-name="Rectangle 689" width="4.115" height="4.115" transform="translate(39.918 23.93)" fill="#fbf6ee"/>
        <rect id="Rectangle_690" data-name="Rectangle 690" width="3.704" height="4.115" transform="translate(48.148 23.93)" fill="#fbf6ee"/>
        <rect id="Rectangle_691" data-name="Rectangle 691" width="4.115" height="4.115" transform="translate(55.967 23.93)" fill="#fbf6ee"/>
        <rect id="Rectangle_692" data-name="Rectangle 692" width="4.115" height="4.115" transform="translate(63.786 23.93)" fill="#fbf6ee"/>
        <rect id="Rectangle_693" data-name="Rectangle 693" width="3.704" height="3.704" transform="translate(36.214 28.046)" fill="#fbf6ee"/>
        <rect id="Rectangle_694" data-name="Rectangle 694" width="3.704" height="3.704" transform="translate(48.148 28.046)" fill="#fbf6ee"/>
        <rect id="Rectangle_695" data-name="Rectangle 695" width="4.115" height="3.704" transform="translate(51.852 28.046)" fill="#fbf6ee"/>
        <rect id="Rectangle_696" data-name="Rectangle 696" width="3.704" height="3.704" transform="translate(60.082 28.046)" fill="#fbf6ee"/>
        <rect id="Rectangle_697" data-name="Rectangle 697" width="4.115" height="3.704" transform="translate(63.786 28.046)" fill="#fbf6ee"/>
        <rect id="Rectangle_698" data-name="Rectangle 698" width="4.115" height="4.115" transform="translate(0 31.749)" fill="#fbf6ee"/>
        <rect id="Rectangle_699" data-name="Rectangle 699" width="4.115" height="4.115" transform="translate(11.934 31.749)" fill="#fbf6ee"/>
        <rect id="Rectangle_700" data-name="Rectangle 700" width="4.115" height="4.115" transform="translate(16.049 31.749)" fill="#fbf6ee"/>
        <rect id="Rectangle_701" data-name="Rectangle 701" width="4.115" height="4.115" transform="translate(20.165 31.749)" fill="#fbf6ee"/>
        <rect id="Rectangle_702" data-name="Rectangle 702" width="3.704" height="4.115" transform="translate(24.28 31.749)" fill="#fbf6ee"/>
        <rect id="Rectangle_703" data-name="Rectangle 703" width="4.115" height="4.115" transform="translate(27.984 31.749)" fill="#fbf6ee"/>
        <rect id="Rectangle_704" data-name="Rectangle 704" width="4.115" height="4.115" transform="translate(32.099 31.749)" fill="#fbf6ee"/>
        <rect id="Rectangle_705" data-name="Rectangle 705" width="3.704" height="4.115" transform="translate(36.214 31.749)" fill="#fbf6ee"/>
        <rect id="Rectangle_706" data-name="Rectangle 706" width="3.704" height="4.115" transform="translate(48.148 31.749)" fill="#fbf6ee"/>
        <rect id="Rectangle_707" data-name="Rectangle 707" width="4.115" height="4.115" transform="translate(51.852 31.749)" fill="#fbf6ee"/>
        <rect id="Rectangle_708" data-name="Rectangle 708" width="4.115" height="4.115" transform="translate(63.786 31.749)" fill="#fbf6ee"/>
        <rect id="Rectangle_709" data-name="Rectangle 709" width="4.115" height="4.115" transform="translate(67.901 31.749)" fill="#fbf6ee"/>
        <rect id="Rectangle_710" data-name="Rectangle 710" width="4.115" height="4.115" transform="translate(79.835 31.749)" fill="#fbf6ee"/>
        <rect id="Rectangle_711" data-name="Rectangle 711" width="3.704" height="4.115" transform="translate(88.066 31.749)" fill="#fbf6ee"/>
        <rect id="Rectangle_712" data-name="Rectangle 712" width="4.115" height="4.115" transform="translate(91.77 31.749)" fill="#fbf6ee"/>
        <rect id="Rectangle_713" data-name="Rectangle 713" width="4.115" height="4.115" transform="translate(95.885 31.749)" fill="#fbf6ee"/>
        <rect id="Rectangle_714" data-name="Rectangle 714" width="4.115" height="4.115" transform="translate(4.115 35.864)" fill="#fbf6ee"/>
        <rect id="Rectangle_715" data-name="Rectangle 715" width="3.704" height="4.115" transform="translate(8.231 35.864)" fill="#fbf6ee"/>
        <rect id="Rectangle_716" data-name="Rectangle 716" width="4.115" height="4.115" transform="translate(16.049 35.864)" fill="#fbf6ee"/>
        <rect id="Rectangle_717" data-name="Rectangle 717" width="4.115" height="4.115" transform="translate(44.033 35.864)" fill="#fbf6ee"/>
        <rect id="Rectangle_718" data-name="Rectangle 718" width="4.115" height="4.115" transform="translate(51.852 35.864)" fill="#fbf6ee"/>
        <rect id="Rectangle_719" data-name="Rectangle 719" width="4.115" height="4.115" transform="translate(55.967 35.864)" fill="#fbf6ee"/>
        <rect id="Rectangle_720" data-name="Rectangle 720" width="3.704" height="4.115" transform="translate(60.082 35.864)" fill="#fbf6ee"/>
        <rect id="Rectangle_721" data-name="Rectangle 721" width="4.115" height="4.115" transform="translate(63.786 35.864)" fill="#fbf6ee"/>
        <rect id="Rectangle_722" data-name="Rectangle 722" width="4.115" height="4.115" transform="translate(79.835 35.864)" fill="#fbf6ee"/>
        <rect id="Rectangle_723" data-name="Rectangle 723" width="4.115" height="4.115" transform="translate(83.951 35.864)" fill="#fbf6ee"/>
        <rect id="Rectangle_724" data-name="Rectangle 724" width="3.704" height="4.115" transform="translate(88.066 35.864)" fill="#fbf6ee"/>
        <rect id="Rectangle_725" data-name="Rectangle 725" width="4.115" height="4.115" transform="translate(91.77 35.864)" fill="#fbf6ee"/>
        <rect id="Rectangle_726" data-name="Rectangle 726" width="4.115" height="3.704" transform="translate(11.934 39.979)" fill="#fbf6ee"/>
        <rect id="Rectangle_727" data-name="Rectangle 727" width="4.115" height="3.704" transform="translate(16.049 39.979)" fill="#fbf6ee"/>
        <rect id="Rectangle_728" data-name="Rectangle 728" width="4.115" height="3.704" transform="translate(20.165 39.979)" fill="#fbf6ee"/>
        <rect id="Rectangle_729" data-name="Rectangle 729" width="3.704" height="3.704" transform="translate(24.28 39.979)" fill="#fbf6ee"/>
        <rect id="Rectangle_730" data-name="Rectangle 730" width="4.115" height="3.704" transform="translate(32.099 39.979)" fill="#fbf6ee"/>
        <rect id="Rectangle_731" data-name="Rectangle 731" width="4.115" height="3.704" transform="translate(39.918 39.979)" fill="#fbf6ee"/>
        <rect id="Rectangle_732" data-name="Rectangle 732" width="4.115" height="3.704" transform="translate(44.033 39.979)" fill="#fbf6ee"/>
        <rect id="Rectangle_733" data-name="Rectangle 733" width="3.704" height="3.704" transform="translate(48.148 39.979)" fill="#fbf6ee"/>
        <rect id="Rectangle_734" data-name="Rectangle 734" width="4.115" height="3.704" transform="translate(51.852 39.979)" fill="#fbf6ee"/>
        <rect id="Rectangle_735" data-name="Rectangle 735" width="3.704" height="3.704" transform="translate(60.082 39.979)" fill="#fbf6ee"/>
        <rect id="Rectangle_736" data-name="Rectangle 736" width="4.115" height="3.704" transform="translate(63.786 39.979)" fill="#fbf6ee"/>
        <rect id="Rectangle_737" data-name="Rectangle 737" width="4.115" height="3.704" transform="translate(83.951 39.979)" fill="#fbf6ee"/>
        <rect id="Rectangle_738" data-name="Rectangle 738" width="4.115" height="3.704" transform="translate(95.885 39.979)" fill="#fbf6ee"/>
        <rect id="Rectangle_739" data-name="Rectangle 739" width="4.115" height="4.115" transform="translate(11.934 43.683)" fill="#fbf6ee"/>
        <rect id="Rectangle_740" data-name="Rectangle 740" width="4.115" height="4.115" transform="translate(16.049 43.683)" fill="#fbf6ee"/>
        <rect id="Rectangle_741" data-name="Rectangle 741" width="4.115" height="4.115" transform="translate(27.984 43.683)" fill="#fbf6ee"/>
        <rect id="Rectangle_742" data-name="Rectangle 742" width="4.115" height="4.115" transform="translate(32.099 43.683)" fill="#fbf6ee"/>
        <rect id="Rectangle_743" data-name="Rectangle 743" width="4.115" height="4.115" transform="translate(51.852 43.683)" fill="#fbf6ee"/>
        <rect id="Rectangle_744" data-name="Rectangle 744" width="3.704" height="4.115" transform="translate(60.082 43.683)" fill="#fbf6ee"/>
        <rect id="Rectangle_745" data-name="Rectangle 745" width="4.115" height="4.115" transform="translate(63.786 43.683)" fill="#fbf6ee"/>
        <rect id="Rectangle_746" data-name="Rectangle 746" width="4.115" height="4.115" transform="translate(72.016 43.683)" fill="#fbf6ee"/>
        <rect id="Rectangle_747" data-name="Rectangle 747" width="3.704" height="4.115" transform="translate(76.132 43.683)" fill="#fbf6ee"/>
        <rect id="Rectangle_748" data-name="Rectangle 748" width="4.115" height="4.115" transform="translate(83.951 43.683)" fill="#fbf6ee"/>
        <rect id="Rectangle_749" data-name="Rectangle 749" width="3.704" height="4.115" transform="translate(88.066 43.683)" fill="#fbf6ee"/>
        <rect id="Rectangle_750" data-name="Rectangle 750" width="4.115" height="4.115" transform="translate(91.77 43.683)" fill="#fbf6ee"/>
        <rect id="Rectangle_751" data-name="Rectangle 751" width="4.115" height="4.115" transform="translate(95.885 43.683)" fill="#fbf6ee"/>
        <rect id="Rectangle_752" data-name="Rectangle 752" width="4.115" height="4.115" transform="translate(0 47.798)" fill="#fbf6ee"/>
        <rect id="Rectangle_753" data-name="Rectangle 753" width="4.115" height="4.115" transform="translate(4.115 47.798)" fill="#fbf6ee"/>
        <rect id="Rectangle_754" data-name="Rectangle 754" width="4.115" height="4.115" transform="translate(11.934 47.798)" fill="#fbf6ee"/>
        <rect id="Rectangle_755" data-name="Rectangle 755" width="4.115" height="4.115" transform="translate(16.049 47.798)" fill="#fbf6ee"/>
        <rect id="Rectangle_756" data-name="Rectangle 756" width="3.704" height="4.115" transform="translate(24.28 47.798)" fill="#fbf6ee"/>
        <rect id="Rectangle_757" data-name="Rectangle 757" width="4.115" height="4.115" transform="translate(39.918 47.798)" fill="#fbf6ee"/>
        <rect id="Rectangle_758" data-name="Rectangle 758" width="4.115" height="4.115" transform="translate(44.033 47.798)" fill="#fbf6ee"/>
        <rect id="Rectangle_759" data-name="Rectangle 759" width="3.704" height="4.115" transform="translate(48.148 47.798)" fill="#fbf6ee"/>
        <rect id="Rectangle_760" data-name="Rectangle 760" width="4.115" height="4.115" transform="translate(51.852 47.798)" fill="#fbf6ee"/>
        <rect id="Rectangle_761" data-name="Rectangle 761" width="3.704" height="4.115" transform="translate(60.082 47.798)" fill="#fbf6ee"/>
        <rect id="Rectangle_762" data-name="Rectangle 762" width="4.115" height="4.115" transform="translate(72.016 47.798)" fill="#fbf6ee"/>
        <rect id="Rectangle_763" data-name="Rectangle 763" width="4.115" height="4.115" transform="translate(95.885 47.798)" fill="#fbf6ee"/>
        <rect id="Rectangle_764" data-name="Rectangle 764" width="4.115" height="4.115" transform="translate(0 51.913)" fill="#fbf6ee"/>
        <rect id="Rectangle_765" data-name="Rectangle 765" width="4.115" height="4.115" transform="translate(4.115 51.913)" fill="#fbf6ee"/>
        <rect id="Rectangle_766" data-name="Rectangle 766" width="4.115" height="4.115" transform="translate(16.049 51.913)" fill="#fbf6ee"/>
        <rect id="Rectangle_767" data-name="Rectangle 767" width="4.115" height="4.115" transform="translate(27.984 51.913)" fill="#fbf6ee"/>
        <rect id="Rectangle_768" data-name="Rectangle 768" width="4.115" height="4.115" transform="translate(32.099 51.913)" fill="#fbf6ee"/>
        <rect id="Rectangle_769" data-name="Rectangle 769" width="3.704" height="4.115" transform="translate(36.214 51.913)" fill="#fbf6ee"/>
        <rect id="Rectangle_770" data-name="Rectangle 770" width="4.115" height="4.115" transform="translate(51.852 51.913)" fill="#fbf6ee"/>
        <rect id="Rectangle_771" data-name="Rectangle 771" width="4.115" height="4.115" transform="translate(55.967 51.913)" fill="#fbf6ee"/>
        <rect id="Rectangle_772" data-name="Rectangle 772" width="3.704" height="4.115" transform="translate(60.082 51.913)" fill="#fbf6ee"/>
        <rect id="Rectangle_773" data-name="Rectangle 773" width="4.115" height="4.115" transform="translate(63.786 51.913)" fill="#fbf6ee"/>
        <rect id="Rectangle_774" data-name="Rectangle 774" width="4.115" height="4.115" transform="translate(79.835 51.913)" fill="#fbf6ee"/>
        <rect id="Rectangle_775" data-name="Rectangle 775" width="4.115" height="4.115" transform="translate(91.77 51.913)" fill="#fbf6ee"/>
        <rect id="Rectangle_776" data-name="Rectangle 776" width="4.115" height="3.704" transform="translate(0 56.029)" fill="#fbf6ee"/>
        <rect id="Rectangle_777" data-name="Rectangle 777" width="4.115" height="3.704" transform="translate(4.115 56.029)" fill="#fbf6ee"/>
        <rect id="Rectangle_778" data-name="Rectangle 778" width="4.115" height="3.704" transform="translate(16.049 56.029)" fill="#fbf6ee"/>
        <rect id="Rectangle_779" data-name="Rectangle 779" width="4.115" height="3.704" transform="translate(20.165 56.029)" fill="#fbf6ee"/>
        <rect id="Rectangle_780" data-name="Rectangle 780" width="3.704" height="3.704" transform="translate(24.28 56.029)" fill="#fbf6ee"/>
        <rect id="Rectangle_781" data-name="Rectangle 781" width="4.115" height="3.704" transform="translate(27.984 56.029)" fill="#fbf6ee"/>
        <rect id="Rectangle_782" data-name="Rectangle 782" width="3.704" height="3.704" transform="translate(36.214 56.029)" fill="#fbf6ee"/>
        <rect id="Rectangle_783" data-name="Rectangle 783" width="4.115" height="3.704" transform="translate(44.033 56.029)" fill="#fbf6ee"/>
        <rect id="Rectangle_784" data-name="Rectangle 784" width="3.704" height="3.704" transform="translate(48.148 56.029)" fill="#fbf6ee"/>
        <rect id="Rectangle_785" data-name="Rectangle 785" width="4.115" height="3.704" transform="translate(51.852 56.029)" fill="#fbf6ee"/>
        <rect id="Rectangle_786" data-name="Rectangle 786" width="3.704" height="3.704" transform="translate(60.082 56.029)" fill="#fbf6ee"/>
        <rect id="Rectangle_787" data-name="Rectangle 787" width="4.115" height="3.704" transform="translate(63.786 56.029)" fill="#fbf6ee"/>
        <rect id="Rectangle_788" data-name="Rectangle 788" width="4.115" height="3.704" transform="translate(72.016 56.029)" fill="#fbf6ee"/>
        <rect id="Rectangle_789" data-name="Rectangle 789" width="4.115" height="3.704" transform="translate(79.835 56.029)" fill="#fbf6ee"/>
        <rect id="Rectangle_790" data-name="Rectangle 790" width="4.115" height="3.704" transform="translate(83.951 56.029)" fill="#fbf6ee"/>
        <rect id="Rectangle_791" data-name="Rectangle 791" width="3.704" height="3.704" transform="translate(88.066 56.029)" fill="#fbf6ee"/>
        <rect id="Rectangle_792" data-name="Rectangle 792" width="4.115" height="3.704" transform="translate(91.77 56.029)" fill="#fbf6ee"/>
        <rect id="Rectangle_793" data-name="Rectangle 793" width="4.115" height="3.704" transform="translate(95.885 56.029)" fill="#fbf6ee"/>
        <rect id="Rectangle_794" data-name="Rectangle 794" width="4.115" height="4.115" transform="translate(0 59.733)" fill="#fbf6ee"/>
        <rect id="Rectangle_795" data-name="Rectangle 795" width="4.115" height="4.115" transform="translate(11.934 59.733)" fill="#fbf6ee"/>
        <rect id="Rectangle_796" data-name="Rectangle 796" width="4.115" height="4.115" transform="translate(32.099 59.733)" fill="#fbf6ee"/>
        <rect id="Rectangle_797" data-name="Rectangle 797" width="3.704" height="4.115" transform="translate(36.214 59.733)" fill="#fbf6ee"/>
        <rect id="Rectangle_798" data-name="Rectangle 798" width="4.115" height="4.115" transform="translate(44.033 59.733)" fill="#fbf6ee"/>
        <rect id="Rectangle_799" data-name="Rectangle 799" width="4.115" height="4.115" transform="translate(67.901 59.733)" fill="#fbf6ee"/>
        <rect id="Rectangle_800" data-name="Rectangle 800" width="3.704" height="4.115" transform="translate(76.132 59.733)" fill="#fbf6ee"/>
        <rect id="Rectangle_801" data-name="Rectangle 801" width="4.115" height="4.115" transform="translate(83.951 59.733)" fill="#fbf6ee"/>
        <rect id="Rectangle_802" data-name="Rectangle 802" width="3.704" height="4.115" transform="translate(88.066 59.733)" fill="#fbf6ee"/>
        <rect id="Rectangle_803" data-name="Rectangle 803" width="4.115" height="4.115" transform="translate(95.885 59.733)" fill="#fbf6ee"/>
        <rect id="Rectangle_804" data-name="Rectangle 804" width="4.115" height="4.115" transform="translate(0 63.848)" fill="#fbf6ee"/>
        <rect id="Rectangle_805" data-name="Rectangle 805" width="3.704" height="4.115" transform="translate(8.231 63.848)" fill="#fbf6ee"/>
        <rect id="Rectangle_806" data-name="Rectangle 806" width="4.115" height="4.115" transform="translate(16.049 63.848)" fill="#fbf6ee"/>
        <rect id="Rectangle_807" data-name="Rectangle 807" width="4.115" height="4.115" transform="translate(20.165 63.848)" fill="#fbf6ee"/>
        <rect id="Rectangle_808" data-name="Rectangle 808" width="3.704" height="4.115" transform="translate(24.28 63.848)" fill="#fbf6ee"/>
        <rect id="Rectangle_809" data-name="Rectangle 809" width="4.115" height="4.115" transform="translate(27.984 63.848)" fill="#fbf6ee"/>
        <rect id="Rectangle_810" data-name="Rectangle 810" width="4.115" height="4.115" transform="translate(32.099 63.848)" fill="#fbf6ee"/>
        <rect id="Rectangle_811" data-name="Rectangle 811" width="4.115" height="4.115" transform="translate(55.967 63.848)" fill="#fbf6ee"/>
        <rect id="Rectangle_812" data-name="Rectangle 812" width="3.704" height="4.115" transform="translate(60.082 63.848)" fill="#fbf6ee"/>
        <rect id="Rectangle_813" data-name="Rectangle 813" width="4.115" height="4.115" transform="translate(63.786 63.848)" fill="#fbf6ee"/>
        <rect id="Rectangle_814" data-name="Rectangle 814" width="4.115" height="4.115" transform="translate(67.901 63.848)" fill="#fbf6ee"/>
        <rect id="Rectangle_815" data-name="Rectangle 815" width="4.115" height="4.115" transform="translate(72.016 63.848)" fill="#fbf6ee"/>
        <rect id="Rectangle_816" data-name="Rectangle 816" width="3.704" height="4.115" transform="translate(76.132 63.848)" fill="#fbf6ee"/>
        <rect id="Rectangle_817" data-name="Rectangle 817" width="4.115" height="4.115" transform="translate(79.835 63.848)" fill="#fbf6ee"/>
        <rect id="Rectangle_818" data-name="Rectangle 818" width="3.704" height="4.115" transform="translate(88.066 63.848)" fill="#fbf6ee"/>
        <rect id="Rectangle_819" data-name="Rectangle 819" width="4.115" height="4.115" transform="translate(91.77 63.848)" fill="#fbf6ee"/>
        <rect id="Rectangle_820" data-name="Rectangle 820" width="4.115" height="3.704" transform="translate(32.099 67.963)" fill="#fbf6ee"/>
        <rect id="Rectangle_821" data-name="Rectangle 821" width="4.115" height="3.704" transform="translate(39.918 67.963)" fill="#fbf6ee"/>
        <rect id="Rectangle_822" data-name="Rectangle 822" width="4.115" height="3.704" transform="translate(44.033 67.963)" fill="#fbf6ee"/>
        <rect id="Rectangle_823" data-name="Rectangle 823" width="3.704" height="3.704" transform="translate(48.148 67.963)" fill="#fbf6ee"/>
        <rect id="Rectangle_824" data-name="Rectangle 824" width="4.115" height="3.704" transform="translate(51.852 67.963)" fill="#fbf6ee"/>
        <rect id="Rectangle_825" data-name="Rectangle 825" width="4.115" height="3.704" transform="translate(55.967 67.963)" fill="#fbf6ee"/>
        <rect id="Rectangle_826" data-name="Rectangle 826" width="4.115" height="3.704" transform="translate(63.786 67.963)" fill="#fbf6ee"/>
        <rect id="Rectangle_827" data-name="Rectangle 827" width="4.115" height="3.704" transform="translate(79.835 67.963)" fill="#fbf6ee"/>
        <rect id="Rectangle_828" data-name="Rectangle 828" width="3.704" height="3.704" transform="translate(88.066 67.963)" fill="#fbf6ee"/>
        <rect id="Rectangle_829" data-name="Rectangle 829" width="4.115" height="3.704" transform="translate(91.77 67.963)" fill="#fbf6ee"/>
        <rect id="Rectangle_830" data-name="Rectangle 830" width="4.115" height="4.115" transform="translate(32.099 71.667)" fill="#fbf6ee"/>
        <rect id="Rectangle_831" data-name="Rectangle 831" width="4.115" height="4.115" transform="translate(44.033 71.667)" fill="#fbf6ee"/>
        <rect id="Rectangle_832" data-name="Rectangle 832" width="4.115" height="4.115" transform="translate(63.786 71.667)" fill="#fbf6ee"/>
        <rect id="Rectangle_833" data-name="Rectangle 833" width="4.115" height="4.115" transform="translate(72.016 71.667)" fill="#fbf6ee"/>
        <rect id="Rectangle_834" data-name="Rectangle 834" width="4.115" height="4.115" transform="translate(79.835 71.667)" fill="#fbf6ee"/>
        <rect id="Rectangle_835" data-name="Rectangle 835" width="4.115" height="4.115" transform="translate(95.885 71.667)" fill="#fbf6ee"/>
        <rect id="Rectangle_836" data-name="Rectangle 836" width="4.115" height="4.115" transform="translate(32.099 75.782)" fill="#fbf6ee"/>
        <rect id="Rectangle_837" data-name="Rectangle 837" width="3.704" height="4.115" transform="translate(36.214 75.782)" fill="#fbf6ee"/>
        <rect id="Rectangle_838" data-name="Rectangle 838" width="3.704" height="4.115" transform="translate(48.148 75.782)" fill="#fbf6ee"/>
        <rect id="Rectangle_839" data-name="Rectangle 839" width="4.115" height="4.115" transform="translate(55.967 75.782)" fill="#fbf6ee"/>
        <rect id="Rectangle_840" data-name="Rectangle 840" width="3.704" height="4.115" transform="translate(60.082 75.782)" fill="#fbf6ee"/>
        <rect id="Rectangle_841" data-name="Rectangle 841" width="4.115" height="4.115" transform="translate(63.786 75.782)" fill="#fbf6ee"/>
        <rect id="Rectangle_842" data-name="Rectangle 842" width="4.115" height="4.115" transform="translate(79.835 75.782)" fill="#fbf6ee"/>
        <rect id="Rectangle_843" data-name="Rectangle 843" width="4.115" height="4.115" transform="translate(91.77 75.782)" fill="#fbf6ee"/>
        <rect id="Rectangle_844" data-name="Rectangle 844" width="4.115" height="3.704" transform="translate(32.099 79.897)" fill="#fbf6ee"/>
        <rect id="Rectangle_845" data-name="Rectangle 845" width="3.704" height="3.704" transform="translate(36.214 79.897)" fill="#fbf6ee"/>
        <rect id="Rectangle_846" data-name="Rectangle 846" width="4.115" height="3.704" transform="translate(39.918 79.897)" fill="#fbf6ee"/>
        <rect id="Rectangle_847" data-name="Rectangle 847" width="3.704" height="3.704" transform="translate(48.148 79.897)" fill="#fbf6ee"/>
        <rect id="Rectangle_848" data-name="Rectangle 848" width="4.115" height="3.704" transform="translate(51.852 79.897)" fill="#fbf6ee"/>
        <rect id="Rectangle_849" data-name="Rectangle 849" width="4.115" height="3.704" transform="translate(55.967 79.897)" fill="#fbf6ee"/>
        <rect id="Rectangle_850" data-name="Rectangle 850" width="3.704" height="3.704" transform="translate(60.082 79.897)" fill="#fbf6ee"/>
        <rect id="Rectangle_851" data-name="Rectangle 851" width="4.115" height="3.704" transform="translate(63.786 79.897)" fill="#fbf6ee"/>
        <rect id="Rectangle_852" data-name="Rectangle 852" width="4.115" height="3.704" transform="translate(67.901 79.897)" fill="#fbf6ee"/>
        <rect id="Rectangle_853" data-name="Rectangle 853" width="4.115" height="3.704" transform="translate(72.016 79.897)" fill="#fbf6ee"/>
        <rect id="Rectangle_854" data-name="Rectangle 854" width="3.704" height="3.704" transform="translate(76.132 79.897)" fill="#fbf6ee"/>
        <rect id="Rectangle_855" data-name="Rectangle 855" width="4.115" height="3.704" transform="translate(79.835 79.897)" fill="#fbf6ee"/>
        <rect id="Rectangle_856" data-name="Rectangle 856" width="4.115" height="3.704" transform="translate(95.885 79.897)" fill="#fbf6ee"/>
        <rect id="Rectangle_857" data-name="Rectangle 857" width="4.115" height="4.115" transform="translate(32.099 83.601)" fill="#fbf6ee"/>
        <rect id="Rectangle_858" data-name="Rectangle 858" width="4.115" height="4.115" transform="translate(55.967 83.601)" fill="#fbf6ee"/>
        <rect id="Rectangle_859" data-name="Rectangle 859" width="4.115" height="4.115" transform="translate(67.901 83.601)" fill="#fbf6ee"/>
        <rect id="Rectangle_860" data-name="Rectangle 860" width="4.115" height="4.115" transform="translate(72.016 83.601)" fill="#fbf6ee"/>
        <rect id="Rectangle_861" data-name="Rectangle 861" width="4.115" height="4.115" transform="translate(91.77 83.601)" fill="#fbf6ee"/>
        <rect id="Rectangle_862" data-name="Rectangle 862" width="4.115" height="4.115" transform="translate(95.885 83.601)" fill="#fbf6ee"/>
        <rect id="Rectangle_863" data-name="Rectangle 863" width="3.704" height="4.115" transform="translate(36.214 87.716)" fill="#fbf6ee"/>
        <rect id="Rectangle_864" data-name="Rectangle 864" width="4.115" height="4.115" transform="translate(39.918 87.716)" fill="#fbf6ee"/>
        <rect id="Rectangle_865" data-name="Rectangle 865" width="3.704" height="4.115" transform="translate(48.148 87.716)" fill="#fbf6ee"/>
        <rect id="Rectangle_866" data-name="Rectangle 866" width="4.115" height="4.115" transform="translate(55.967 87.716)" fill="#fbf6ee"/>
        <rect id="Rectangle_867" data-name="Rectangle 867" width="3.704" height="4.115" transform="translate(60.082 87.716)" fill="#fbf6ee"/>
        <rect id="Rectangle_868" data-name="Rectangle 868" width="4.115" height="4.115" transform="translate(67.901 87.716)" fill="#fbf6ee"/>
        <rect id="Rectangle_869" data-name="Rectangle 869" width="4.115" height="4.115" transform="translate(79.835 87.716)" fill="#fbf6ee"/>
        <rect id="Rectangle_870" data-name="Rectangle 870" width="4.115" height="4.115" transform="translate(83.951 87.716)" fill="#fbf6ee"/>
        <rect id="Rectangle_871" data-name="Rectangle 871" width="3.704" height="4.115" transform="translate(88.066 87.716)" fill="#fbf6ee"/>
        <rect id="Rectangle_872" data-name="Rectangle 872" width="4.115" height="4.115" transform="translate(91.77 87.716)" fill="#fbf6ee"/>
        <rect id="Rectangle_873" data-name="Rectangle 873" width="4.115" height="4.115" transform="translate(95.885 87.716)" fill="#fbf6ee"/>
        <rect id="Rectangle_874" data-name="Rectangle 874" width="4.115" height="3.704" transform="translate(55.967 91.831)" fill="#fbf6ee"/>
        <rect id="Rectangle_875" data-name="Rectangle 875" width="3.704" height="3.704" transform="translate(60.082 91.831)" fill="#fbf6ee"/>
        <rect id="Rectangle_876" data-name="Rectangle 876" width="4.115" height="3.704" transform="translate(67.901 91.831)" fill="#fbf6ee"/>
        <rect id="Rectangle_877" data-name="Rectangle 877" width="4.115" height="3.704" transform="translate(72.016 91.831)" fill="#fbf6ee"/>
        <rect id="Rectangle_878" data-name="Rectangle 878" width="3.704" height="3.704" transform="translate(76.132 91.831)" fill="#fbf6ee"/>
        <rect id="Rectangle_879" data-name="Rectangle 879" width="4.115" height="3.704" transform="translate(79.835 91.831)" fill="#fbf6ee"/>
        <rect id="Rectangle_880" data-name="Rectangle 880" width="3.704" height="3.704" transform="translate(88.066 91.831)" fill="#fbf6ee"/>
        <rect id="Rectangle_881" data-name="Rectangle 881" width="4.115" height="3.704" transform="translate(91.77 91.831)" fill="#fbf6ee"/>
        <rect id="Rectangle_882" data-name="Rectangle 882" width="4.115" height="3.704" transform="translate(95.885 91.831)" fill="#fbf6ee"/>
        <rect id="Rectangle_883" data-name="Rectangle 883" width="4.115" height="4.115" transform="translate(32.099 95.535)" fill="#fbf6ee"/>
        <rect id="Rectangle_884" data-name="Rectangle 884" width="3.704" height="4.115" transform="translate(36.214 95.535)" fill="#fbf6ee"/>
        <rect id="Rectangle_885" data-name="Rectangle 885" width="4.115" height="4.115" transform="translate(51.852 95.535)" fill="#fbf6ee"/>
        <rect id="Rectangle_886" data-name="Rectangle 886" width="4.115" height="4.115" transform="translate(55.967 95.535)" fill="#fbf6ee"/>
        <rect id="Rectangle_887" data-name="Rectangle 887" width="4.115" height="4.115" transform="translate(63.786 95.535)" fill="#fbf6ee"/>
        <rect id="Rectangle_888" data-name="Rectangle 888" width="4.115" height="4.115" transform="translate(72.016 95.535)" fill="#fbf6ee"/>
        <rect id="Rectangle_889" data-name="Rectangle 889" width="4.115" height="4.115" transform="translate(83.951 95.535)" fill="#fbf6ee"/>
        <rect id="Rectangle_890" data-name="Rectangle 890" width="4.115" height="4.115" transform="translate(95.885 95.535)" fill="#fbf6ee"/>
        <g id="Group_621" data-name="Group 621" transform="translate(0.158)">
          <rect id="Rectangle_891" data-name="Rectangle 891" width="19.342" height="19.753" transform="translate(4.369 4.177)" fill="none"/>
          <path id="Path_86" data-name="Path 86" d="M23.731,0H0V27.919H27.919V0Zm0,23.731H4.188V4.188H23.731Z" fill="#fbf6ee"/>
        </g>
        <g id="Group_624" data-name="Group 624" transform="translate(71.95)">
          <rect id="Rectangle_892" data-name="Rectangle 892" width="19.753" height="19.753" transform="translate(4.181 4.177)" fill="none"/>
          <path id="Path_87" data-name="Path 87" d="M23.731,0H0V27.919H27.919V0Zm0,23.731H4.188V4.188H23.731Z" fill="#fbf6ee"/>
        </g>
        <g id="Group_627" data-name="Group 627" transform="translate(0.158 71.793)">
          <rect id="Rectangle_893" data-name="Rectangle 893" width="19.342" height="19.753" transform="translate(4.369 3.989)" fill="none"/>
          <path id="Path_88" data-name="Path 88" d="M23.731,0H0V27.919H27.919V0Zm0,23.731H4.188V4.188H23.731Z" fill="#fbf6ee"/>
        </g>
        <rect id="Rectangle_894" data-name="Rectangle 894" width="11.934" height="11.934" transform="translate(8.231 7.881)" fill="#fbf6ee"/>
        <rect id="Rectangle_895" data-name="Rectangle 895" width="11.934" height="11.934" transform="translate(79.835 7.881)" fill="#fbf6ee"/>
        <rect id="Rectangle_896" data-name="Rectangle 896" width="11.934" height="11.934" transform="translate(8.231 79.897)" fill="#fbf6ee"/>
      </g>
    </g>
  </g>
</svg>
