<svg id="setting-2" xmlns="http://www.w3.org/2000/svg" width="32" height="30.308" viewBox="0 0 32 30.308">
  <g id="Group_668" data-name="Group 668">
    <path id="Path_114" data-name="Path 114" d="M13.826,19.4A5.576,5.576,0,1,1,19.4,13.826,5.578,5.578,0,0,1,13.826,19.4Zm0-8.922a3.346,3.346,0,1,0,3.346,3.346A3.351,3.351,0,0,0,13.826,10.48Z" transform="translate(2.159 1.323)" fill="#e6e9ed"/>
    <path id="Path_115" data-name="Path 115" d="M22.008,32.114a4.044,4.044,0,0,1-.937-.119,3.652,3.652,0,0,1-2.186-1.651l-.178-.3c-.877-1.517-2.082-1.517-2.959,0l-.164.283A3.565,3.565,0,0,1,13.4,31.995a3.481,3.481,0,0,1-2.721-.372L8.12,30.151a3.941,3.941,0,0,1-1.457-5.383,1.99,1.99,0,0,0,.3-1.874,1.982,1.982,0,0,0-1.77-.684A3.947,3.947,0,0,1,1.25,18.27V15.653a3.947,3.947,0,0,1,3.941-3.941,1.982,1.982,0,0,0,1.77-.684,1.949,1.949,0,0,0-.3-1.874,3.958,3.958,0,0,1-.387-2.989A3.836,3.836,0,0,1,8.12,3.772L10.692,2.3A3.6,3.6,0,0,1,15.6,3.593l.178.3c.877,1.517,2.082,1.517,2.959,0l.164-.283a3.59,3.59,0,0,1,4.922-1.294L26.38,3.787A3.941,3.941,0,0,1,27.837,9.17a1.99,1.99,0,0,0-.3,1.874,1.982,1.982,0,0,0,1.77.684,3.947,3.947,0,0,1,3.941,3.941v2.617a3.947,3.947,0,0,1-3.941,3.941,1.982,1.982,0,0,0-1.77.684,1.949,1.949,0,0,0,.3,1.874,3.891,3.891,0,0,1,.387,2.989,3.836,3.836,0,0,1-1.844,2.394l-2.572,1.472a3.7,3.7,0,0,1-1.8.476Zm-4.773-5.5a4.051,4.051,0,0,1,3.405,2.3l.164.283a1.363,1.363,0,0,0,1.844.491L25.22,28.2a1.72,1.72,0,0,0,.639-2.335,4.083,4.083,0,0,1-.3-4.1,4.062,4.062,0,0,1,3.7-1.8,1.7,1.7,0,0,0,1.71-1.71V15.638a1.71,1.71,0,0,0-1.71-1.71,4.062,4.062,0,0,1-3.7-1.8,4.083,4.083,0,0,1,.3-4.1,1.7,1.7,0,0,0,.164-1.294,1.739,1.739,0,0,0-.788-1.041L22.663,4.218a1.368,1.368,0,0,0-1.874.491l-.164.283A4.051,4.051,0,0,1,17.22,7.3a4.051,4.051,0,0,1-3.405-2.3l-.164-.3a1.365,1.365,0,0,0-1.844-.476L9.235,5.7A1.72,1.72,0,0,0,8.6,8.039a4.083,4.083,0,0,1,.3,4.1,4.062,4.062,0,0,1-3.7,1.8,1.7,1.7,0,0,0-1.71,1.71V18.27a1.71,1.71,0,0,0,1.71,1.71,4.062,4.062,0,0,1,3.7,1.8,4.083,4.083,0,0,1-.3,4.1,1.7,1.7,0,0,0-.164,1.294,1.739,1.739,0,0,0,.788,1.041l2.572,1.472a1.315,1.315,0,0,0,1.026.149,1.41,1.41,0,0,0,.848-.639l.164-.283a4.081,4.081,0,0,1,3.405-2.3Z" transform="translate(-1.25 -1.812)" fill="#e6e9ed"/>
  </g>
</svg>
