<svg xmlns="http://www.w3.org/2000/svg" xmlns:xlink="http://www.w3.org/1999/xlink" width="318" height="1080" viewBox="0 0 318 1080">
  <defs>
    <clipPath id="clip-path">
      <rect id="Rectangle_1037" data-name="Rectangle 1037" width="318" height="1080" fill="#191818"/>
    </clipPath>
  </defs>
  <g id="nav" clip-path="url(#clip-path)">
    <g id="main-tab-item" transform="translate(43 968.548)">
      <g id="Group_806" data-name="Group 806" opacity="0.5">
        <rect id="Rectangle_1" data-name="Rectangle 1" width="254" height="63.452" rx="16" fill="#f2f2f2" opacity="0"/>
      </g>
      <text id="Support" transform="translate(76 20)" fill="#292d32" font-size="18" font-family="Helvetica" opacity="0.5"><tspan x="0" y="14">Support</tspan></text>
      <g id="message-text" transform="translate(14.839 14.75)" opacity="0.5">
        <g id="Group_29" data-name="Group 29" transform="translate(1.25 1.25)">
          <path id="Path_36" data-name="Path 36" d="M17.205,33.25a3.362,3.362,0,0,1-2.672-1.425l-2.226-2.968a.7.7,0,0,0-.3-.148h-.742C5.079,28.708,1.25,27.031,1.25,18.69V11.269C1.25,4.708,4.708,1.25,11.269,1.25H23.142c6.56,0,10.019,3.458,10.019,10.019V18.69c0,6.56-3.458,10.019-10.019,10.019H22.4a.387.387,0,0,0-.3.148l-2.226,2.968A3.362,3.362,0,0,1,17.205,33.25ZM11.269,3.476c-5.314,0-7.792,2.479-7.792,7.792V18.69c0,6.709,2.3,7.792,7.792,7.792h.742a2.784,2.784,0,0,1,2.078,1.039l2.226,2.968a1.03,1.03,0,0,0,1.781,0l2.226-2.968A2.6,2.6,0,0,1,22.4,26.482h.742c5.314,0,7.792-2.479,7.792-7.792V11.269c0-5.314-2.479-7.792-7.792-7.792Z" transform="translate(-1.25 -1.25)" fill="#292d32"/>
          <path id="Path_37" data-name="Path 37" d="M22.205,9.476H7.363a1.113,1.113,0,0,1,0-2.226H22.205a1.113,1.113,0,0,1,0,2.226Z" transform="translate(1.171 1.655)" fill="#292d32"/>
          <path id="Path_38" data-name="Path 38" d="M16.269,14.476H7.363a1.113,1.113,0,0,1,0-2.226h8.905a1.113,1.113,0,0,1,0,2.226Z" transform="translate(1.171 4.077)" fill="#292d32"/>
        </g>
      </g>
    </g>
    <g id="Vi.Site_Logo_dark_RZ" transform="translate(58.997 48)">
      <rect id="Rectangle_964" data-name="Rectangle 964" width="139" height="63" transform="translate(0.003 0)" fill="#fff" opacity="0"/>
      <path id="Path_158" data-name="Path 158" d="M36.108,62.965a.5.5,0,0,0,.942-.011L63.744,14.767c.255-.459.035-.833-.491-.833H55.625a1.778,1.778,0,0,0-1.414.833L32.152,54.528a1.851,1.851,0,0,0,.019,1.655l3.938,6.782h0ZM47.28.04a1.778,1.778,0,0,0-1.414.833L28.841,31.614c-.255.459-.676.464-.939.008L14.892,9.2c-.263-.456-.052-.822.475-.822H34.377a1.776,1.776,0,0,0,1.411-.833L39.451.876c.252-.461.033-.833-.494-.833H.591C.065.04-.147.409.116.865L27.932,48.876a.493.493,0,0,0,.939-.008L55.473.873c.255-.459.035-.833-.491-.833h-7.7Z" transform="translate(0 -0.029)" fill="#041e4f"/>
      <path id="Path_159" data-name="Path 159" d="M222.332.008a4.6,4.6,0,0,0-3.647,2.155L216.459,6.19a1.342,1.342,0,0,0,1.275,2.171h4.578a4.6,4.6,0,0,0,3.65-2.149l2.252-4.065C228.872.961,228.3,0,226.948,0l-4.616.008Z" transform="translate(-157.518)" fill="#fa2157"/>
      <path id="Path_160" data-name="Path 160" d="M268.016,39.9c-1.425-2.518-4.706-3.992-7.794-3.992-4.038,0-7.938,1.948-7.938,6.464,0,4.231,3.756,5.37,6.369,5.989,4.231,1,6.559,1.948,6.559,4.277,0,2.9-2.472,3.9-5.227,3.9a7.365,7.365,0,0,1-6.179-3.468l-2.567,1.9a10.389,10.389,0,0,0,8.792,4.326c4.087,0,8.364-1.8,8.364-6.89,0-3.468-2.472-5.417-7.7-6.51-3.661-.76-5.322-1.712-5.322-3.8,0-2.472,2.377-3.468,4.706-3.468a6.029,6.029,0,0,1,5.465,3.137l2.472-1.853h0Zm10.073-3.422h-3.232V58.723h3.232V36.481Zm18.63,0h-6.274V30.21h-3.232v6.274H282.6v2.708h4.611V53.07c0,4.9,3.327,5.94,5.7,5.94a10.47,10.47,0,0,0,3.8-.665l-.144-2.8a6.612,6.612,0,0,1-2.8.714c-1.948,0-3.327-.76-3.327-4.087V39.19h6.274V36.481Zm6.844,9.411a7.874,7.874,0,0,1,7.794-7.27c4.611,0,7.175,3.088,7.368,7.27H303.566ZM322,46.937c0-6.084-3.658-11.026-10.646-11.026-6.32,0-11.216,4.99-11.216,11.691a11.293,11.293,0,0,0,11.5,11.691,11.6,11.6,0,0,0,9.552-4.706l-2.423-1.9a8.425,8.425,0,0,1-7.129,3.848,8.114,8.114,0,0,1-8.128-8.079h18.44c.046-.57.046-1.094.046-1.52h0Z" transform="translate(-183.059 -22.012)" fill="#041e4f"/>
      <path id="Path_161" data-name="Path 161" d="M341.511.008a4.6,4.6,0,0,0-3.647,2.155L335.639,6.19a1.342,1.342,0,0,0,1.275,2.171h1.354a4.6,4.6,0,0,0,3.65-2.149l2.252-4.065C344.83.961,344.263,0,342.906,0l-1.392.008h0Z" transform="translate(-244.356)" fill="#fa2157"/>
    </g>
    <g id="Group_807" data-name="Group 807">
      <g id="main-tab-item-2" data-name="main-tab-item" transform="translate(43 455.356)">
        <g id="Group_806-2" data-name="Group 806" opacity="0.5">
          <rect id="Rectangle_1-2" data-name="Rectangle 1" width="254" height="63.452" rx="16" fill="#f2f2f2" opacity="0"/>
        </g>
        <text id="Subscription" transform="translate(76 20)" fill="#292d32" font-size="18" font-family="Helvetica" opacity="0.5"><tspan x="0" y="14">Subscription</tspan></text>
        <g id="crown" transform="translate(14.75 15.574)" opacity="0.5">
          <g id="Group_2" data-name="Group 2" transform="translate(1.25 2.975)">
            <path id="Path_3" data-name="Path 3" d="M24.7,29.875H9.812A8.573,8.573,0,0,1,1.25,21.313V7.048c0-1.936.893-2.606,1.429-2.829s1.638-.387,3.008.983L9.544,9.058a.36.36,0,0,0,.521,0l5.346-5.346a2.663,2.663,0,0,1,3.678,0l5.346,5.346a.36.36,0,0,0,.521,0L28.813,5.2c1.37-1.37,2.472-1.191,3.008-.983S33.25,5.1,33.25,7.048v14.28c.015,5.107-3.425,8.547-8.547,8.547ZM3.573,6.348a2.11,2.11,0,0,0-.089.7v14.28a6.343,6.343,0,0,0,6.329,6.329H24.7a5.933,5.933,0,0,0,6.329-6.329V7.048a2,2,0,0,0-.089-.685,2.223,2.223,0,0,0-.551.432l-3.857,3.857a2.663,2.663,0,0,1-3.678,0L17.511,5.305a.36.36,0,0,0-.521,0l-5.331,5.331a2.663,2.663,0,0,1-3.678,0L4.124,6.78a2.539,2.539,0,0,0-.551-.432Z" transform="translate(-1.25 -2.975)" fill="#292d32"/>
          </g>
        </g>
      </g>
      <g id="main-tab-item-3" data-name="main-tab-item" transform="translate(43 373.904)">
        <g id="Group_806-3" data-name="Group 806" opacity="0.5">
          <rect id="Rectangle_1-3" data-name="Rectangle 1" width="254" height="63.452" rx="16" fill="#f2f2f2" opacity="0"/>
        </g>
        <text id="Analytics" transform="translate(76 20)" fill="#292d32" font-size="18" font-family="Helvetica" opacity="0.5"><tspan x="0" y="14">Analytics</tspan></text>
        <g id="status-up" transform="translate(14.75 14.846)" opacity="0.5">
          <g id="Group_3" data-name="Group 3" transform="translate(1.25 1.25)">
            <path id="Path_4" data-name="Path 4" d="M7.246,20.643A1.124,1.124,0,0,1,6.13,19.527V16.446a1.116,1.116,0,1,1,2.233,0v3.081A1.115,1.115,0,0,1,7.246,20.643Z" transform="translate(1.133 5.626)" fill="#292d32"/>
            <path id="Path_5" data-name="Path 5" d="M12.366,21.659a1.124,1.124,0,0,1-1.116-1.116V14.366a1.116,1.116,0,1,1,2.233,0v6.177A1.115,1.115,0,0,1,12.366,21.659Z" transform="translate(3.634 4.61)" fill="#292d32"/>
            <path id="Path_6" data-name="Path 6" d="M17.486,22.67a1.124,1.124,0,0,1-1.116-1.116V12.3a1.116,1.116,0,1,1,2.233,0v9.258A1.105,1.105,0,0,1,17.486,22.67Z" transform="translate(6.134 3.6)" fill="#292d32"/>
            <path id="Path_7" data-name="Path 7" d="M7.248,17.126a1.126,1.126,0,0,1-1.087-.848,1.113,1.113,0,0,1,.819-1.354A26.974,26.974,0,0,0,20.955,6.291l.685-.8a1.119,1.119,0,0,1,1.7,1.459l-.685.8A29.043,29.043,0,0,1,7.515,17.1a.824.824,0,0,1-.268.03Z" transform="translate(1.132 0.63)" fill="#292d32"/>
            <path id="Path_8" data-name="Path 8" d="M18.917,11.679A1.124,1.124,0,0,1,17.8,10.562V7.333H14.556a1.116,1.116,0,1,1,0-2.233h4.361a1.124,1.124,0,0,1,1.116,1.116v4.361a1.1,1.1,0,0,1-1.116,1.1Z" transform="translate(4.703 0.63)" fill="#292d32"/>
            <path id="Path_9" data-name="Path 9" d="M21.715,33.25h-8.93C4.7,33.25,1.25,29.8,1.25,21.715v-8.93C1.25,4.7,4.7,1.25,12.785,1.25h8.93C29.8,1.25,33.25,4.7,33.25,12.785v8.93C33.25,29.8,29.8,33.25,21.715,33.25ZM12.785,3.483c-6.861,0-9.3,2.441-9.3,9.3v8.93c0,6.861,2.441,9.3,9.3,9.3h8.93c6.861,0,9.3-2.441,9.3-9.3v-8.93c0-6.861-2.441-9.3-9.3-9.3Z" transform="translate(-1.25 -1.25)" fill="#292d32"/>
          </g>
        </g>
      </g>
      <g id="main-tab-item-4" data-name="main-tab-item" transform="translate(43 292.452)">
        <g id="Group_806-4" data-name="Group 806" opacity="0.5">
          <rect id="Rectangle_1-4" data-name="Rectangle 1" width="254" height="63.452" rx="16" fill="#f2f2f2" opacity="0"/>
        </g>
        <text id="My_Vi-Sites" data-name="My Vi-Sites" transform="translate(76 20)" fill="#fa2157" font-size="18" font-family="Helvetica"><tspan x="0" y="14">My Vi-Sites</tspan></text>
        <g id="card" transform="translate(14.75 15.208)">
          <g id="Group_4" data-name="Group 4" transform="translate(1.25 2.75)">
            <path id="Path_10" data-name="Path 10" d="M32.134,9.983H2.366a1.116,1.116,0,1,1,0-2.233H32.134a1.116,1.116,0,1,1,0,2.233Z" transform="translate(-1.25 -0.308)" fill="#fa2157"/>
            <path id="Path_11" data-name="Path 11" d="M9.343,17.983H6.366a1.116,1.116,0,1,1,0-2.233H9.343a1.116,1.116,0,1,1,0,2.233Z" transform="translate(0.703 3.599)" fill="#fa2157"/>
            <path id="Path_12" data-name="Path 12" d="M16.82,17.983H10.866a1.116,1.116,0,1,1,0-2.233H16.82a1.116,1.116,0,1,1,0,2.233Z" transform="translate(2.901 3.599)" fill="#fa2157"/>
            <path id="Path_13" data-name="Path 13" d="M25.525,30.285H8.975c-5.924,0-7.725-1.786-7.725-7.65V10.4c0-5.864,1.8-7.65,7.725-7.65H25.51c5.924,0,7.725,1.786,7.725,7.65V22.62C33.25,28.5,31.449,30.285,25.525,30.285ZM8.975,4.983c-4.673,0-5.492.8-5.492,5.418V22.62c0,4.614.819,5.418,5.492,5.418H25.51c4.673,0,5.492-.8,5.492-5.418V10.4c0-4.614-.819-5.418-5.492-5.418H8.975Z" transform="translate(-1.25 -2.75)" fill="#fa2157"/>
          </g>
        </g>
      </g>
      <g id="main-tab-item-5" data-name="main-tab-item" transform="translate(43 211)">
        <g id="Group_806-5" data-name="Group 806" opacity="0.5">
          <rect id="Rectangle_1-5" data-name="Rectangle 1" width="254" height="63.452" rx="16" fill="#f2f2f2" opacity="0"/>
        </g>
        <text id="Dashboard" transform="translate(76 20)" fill="#292d32" font-size="18" font-family="Helvetica" opacity="0.5"><tspan x="0" y="14">Dashboard</tspan></text>
        <g id="home" transform="translate(14.755 14.575)" opacity="0.5">
          <g id="Group_28" data-name="Group 28" transform="translate(1.245 1.425)">
            <path id="Path_34" data-name="Path 34" d="M12.366,20.947a1.124,1.124,0,0,1-1.116-1.116V15.366a1.116,1.116,0,1,1,2.232,0v4.464A1.124,1.124,0,0,1,12.366,20.947Z" transform="translate(3.639 4.836)" fill="#292d32"/>
            <path id="Path_35" data-name="Path 35" d="M25.584,32.877H8.916A5.823,5.823,0,0,1,3.291,28.13L1.312,16.269a6.127,6.127,0,0,1,2.054-5.387L13.678,2.623a5.894,5.894,0,0,1,7.143.015l10.313,8.244a6.248,6.248,0,0,1,2.054,5.387L31.209,28.115a5.917,5.917,0,0,1-5.625,4.762ZM17.235,3.665a3.5,3.5,0,0,0-2.158.7L4.764,12.638a3.982,3.982,0,0,0-1.25,3.274L5.494,27.758a3.647,3.647,0,0,0,3.423,2.887H25.584a3.645,3.645,0,0,0,3.423-2.9L30.986,15.9a4.076,4.076,0,0,0-1.25-3.274L19.423,4.379a3.538,3.538,0,0,0-2.188-.714Z" transform="translate(-1.245 -1.425)" fill="#292d32"/>
          </g>
        </g>
      </g>
      <path id="Path_151" data-name="Path 151" d="M23.5-20C23.5,10.57,37,10.521,37,23.5S23.5,40.965,23.5,67,0,36.479,0,23.5,23.5-50.57,23.5-20Z" transform="translate(-24 301.526)" fill="#fa2157"/>
    </g>
  </g>
</svg>
