<svg id="socials" xmlns="http://www.w3.org/2000/svg" width="48" height="48" viewBox="0 0 48 48">
  <rect id="Rectangle_3" data-name="Rectangle 3" width="48" height="48" rx="12" fill="#1da1f2"/>
  <g id="logo-twitter" transform="translate(12 11.7)">
    <g id="Group_109" data-name="Group 109">
      <path id="Path_66" data-name="Path 66" d="M24,4.6a9.006,9.006,0,0,1-2.8.8,5.324,5.324,0,0,0,2.2-2.7,9.078,9.078,0,0,1-3.1,1.2,4.841,4.841,0,0,0-3.6-1.6,4.908,4.908,0,0,0-4.9,4.9,3.75,3.75,0,0,0,.1,1.1A13.807,13.807,0,0,1,1.7,3.1,4.514,4.514,0,0,0,1,5.6,5.021,5.021,0,0,0,3.2,9.7,4.032,4.032,0,0,1,1,9.1v.1A4.85,4.85,0,0,0,4.9,14a5.067,5.067,0,0,1-1.3.2,2.769,2.769,0,0,1-.9-.1,4.741,4.741,0,0,0,4.6,3.4,10,10,0,0,1-6.1,2.1A4.869,4.869,0,0,1,0,19.5a14,14,0,0,0,7.5,2.2,13.874,13.874,0,0,0,14-14V7.1A11.849,11.849,0,0,0,24,4.6Z" fill="#fff"/>
    </g>
  </g>
</svg>
